<?xml version="1.0" encoding="UTF-8" standalone="no"?>
<!-- Created with Inkscape (http://www.inkscape.org/) -->

<svg
   xmlns:dc="http://purl.org/dc/elements/1.1/"
   xmlns:cc="http://creativecommons.org/ns#"
   xmlns:rdf="http://www.w3.org/1999/02/22-rdf-syntax-ns#"
   xmlns:svg="http://www.w3.org/2000/svg"
   xmlns="http://www.w3.org/2000/svg"
   xmlns:xlink="http://www.w3.org/1999/xlink"
   xmlns:sodipodi="http://sodipodi.sourceforge.net/DTD/sodipodi-0.dtd"
   xmlns:inkscape="http://www.inkscape.org/namespaces/inkscape"
   width="60mm"
   height="40mm"
   viewBox="0 0 60 40"
   version="1.1"
   id="svg8"
   inkscape:version="0.92.1 r15371"
   sodipodi:docname="立夏.svg"
   inkscape:export-filename="/home/wxc/Pictures/立夏.svg.png"
   inkscape:export-xdpi="600"
   inkscape:export-ydpi="600">
  <defs
     id="defs2">
    <linearGradient
       inkscape:collect="always"
       id="linearGradient4701">
      <stop
         style="stop-color:#ff2100;stop-opacity:1;"
         offset="0"
         id="stop4697" />
      <stop
         style="stop-color:#ff3300;stop-opacity:0.584"
         offset="1"
         id="stop4699" />
    </linearGradient>
    <linearGradient
       inkscape:collect="always"
       id="linearGradient4693">
      <stop
         style="stop-color:#ff2100;stop-opacity:1;"
         offset="0"
         id="stop4689" />
      <stop
         style="stop-color:#ff2100;stop-opacity:0;"
         offset="1"
         id="stop4691" />
    </linearGradient>
    <linearGradient
       inkscape:collect="always"
       xlink:href="#linearGradient4693"
       id="linearGradient4695"
       x1="40.112722"
       y1="6.7262844"
       x2="43.042038"
       y2="6.7262844"
       gradientUnits="userSpaceOnUse" />
    <linearGradient
       inkscape:collect="always"
       xlink:href="#linearGradient4701"
       id="linearGradient4703"
       x1="36.899926"
       y1="7.0570134"
       x2="43.46726"
       y2="7.0570134"
       gradientUnits="userSpaceOnUse" />
    <linearGradient
       inkscape:collect="always"
       xlink:href="#linearGradient4701"
       id="linearGradient4717"
       gradientUnits="userSpaceOnUse"
       x1="36.899926"
       y1="7.0570134"
       x2="43.46726"
       y2="7.0570134"
       gradientTransform="matrix(0.63079796,-0.32469204,0.26570599,0.77083351,10.916303,14.32123)" />
    <linearGradient
       inkscape:collect="always"
       xlink:href="#linearGradient4693"
       id="linearGradient4719"
       gradientUnits="userSpaceOnUse"
       x1="40.112722"
       y1="6.7262844"
       x2="43.042038"
       y2="6.7262844"
       gradientTransform="matrix(0.63079796,-0.32469204,0.26570599,0.77083351,10.869056,14.462971)" />
    <linearGradient
       inkscape:collect="always"
       xlink:href="#linearGradient4701"
       id="linearGradient4717-3"
       gradientUnits="userSpaceOnUse"
       x1="36.899925"
       y1="7.0570135"
       x2="43.467258"
       y2="7.0570135"
       gradientTransform="matrix(-0.1191465,0.69938194,-0.77593968,-0.25040281,39.627011,5.8267917)" />
  </defs>
  <sodipodi:namedview
     id="base"
     pagecolor="#ffffff"
     bordercolor="#666666"
     borderopacity="1.0"
     inkscape:pageopacity="0.0"
     inkscape:pageshadow="2"
     inkscape:zoom="2.8"
     inkscape:cx="18.482618"
     inkscape:cy="74.693537"
     inkscape:document-units="mm"
     inkscape:current-layer="layer5"
     showgrid="false"
     inkscape:snap-global="false" />
  <metadata
     id="metadata5">
    <rdf:RDF>
      <cc:Work
         rdf:about="">
        <dc:format>image/svg+xml</dc:format>
        <dc:type
           rdf:resource="http://purl.org/dc/dcmitype/StillImage" />
        <dc:title></dc:title>
      </cc:Work>
    </rdf:RDF>
  </metadata>
  <g
     inkscape:label="Layer 1"
     inkscape:groupmode="layer"
     id="layer1"
     transform="translate(0,-257)"
     style="display:none">
    <path
       style="opacity:0.86400003;fill:#6d8d12;fill-opacity:1;fill-rule:nonzero;stroke:#020306;stroke-width:1;stroke-linecap:round;stroke-miterlimit:4;stroke-dasharray:none;stroke-dashoffset:0;stroke-opacity:1"
       id="path4505"
       d="m 15.633553,266.15321 c 0.141532,0.44084 0.275766,0.894 0.302135,1.35948 0.01275,0.22508 -0.02387,0.50369 -0.04164,0.72539 -0.0108,0.13476 -0.01946,0.26968 -0.02919,0.40452 -0.01534,0.15067 -0.02754,0.30169 -0.04602,0.452 -0.0185,0.15052 -0.0312,0.30245 -0.0649,0.45031 -0.03586,0.15732 -0.09232,0.30928 -0.143148,0.46242 -0.11383,0.34298 -0.257819,0.67322 -0.383212,1.01179 -0.0638,0.21986 -0.195966,0.40262 -0.315118,0.59333 -0.03722,0.0596 -0.06639,0.12428 -0.107575,0.18118 -0.09039,0.1249 -0.156096,0.16897 -0.271372,0.26667 -0.183571,0.18917 -0.08935,0.10026 -0.281905,0.26753 0,0 -0.04379,-0.0505 -0.04379,-0.0505 v 0 c 0.190135,-0.16474 0.09545,-0.0759 0.282584,-0.26812 0.104847,-0.0882 0.175364,-0.13672 0.257033,-0.24973 0.04178,-0.0578 0.07152,-0.12348 0.109322,-0.18397 0.116488,-0.1864 0.246326,-0.36438 0.308162,-0.57963 0.125028,-0.33744 0.268211,-0.66668 0.382056,-1.00839 0.04989,-0.14976 0.105694,-0.29825 0.140826,-0.45214 0.03355,-0.14695 0.04616,-0.29795 0.06456,-0.44755 0.01841,-0.14966 0.03057,-0.30002 0.04585,-0.45004 0.0098,-0.13521 0.01843,-0.2705 0.02928,-0.40563 0.01689,-0.21033 0.05384,-0.49654 0.04189,-0.71118 -0.02569,-0.46113 -0.159081,-0.90998 -0.299222,-1.34664 0,0 0.06339,-0.0211 0.06339,-0.0211 z"
       inkscape:connector-curvature="0" />
    <path
       style="opacity:0.86400003;fill:#6d8d12;fill-opacity:1;fill-rule:nonzero;stroke:#020306;stroke-width:1;stroke-linecap:round;stroke-miterlimit:4;stroke-dasharray:none;stroke-dashoffset:0;stroke-opacity:1"
       id="path4507"
       d="m 12.843878,268.97364 c 0.373603,0.20376 0.332499,0.15859 0.63987,0.40406 0.05312,0.0424 0.108284,0.0838 0.152489,0.13539 0.09194,0.10739 0.104449,0.27392 0.119587,0.40548 0.02051,0.0705 0.03696,0.14237 0.06154,0.21158 0.05287,0.14892 0.122399,0.29151 0.176573,0.43995 0.02073,0.0568 0.113394,0.33781 0.147269,0.40942 0.02637,0.0558 0.0618,0.10673 0.0927,0.1601 0.03112,0.0467 0.03856,0.15237 0.09335,0.14015 0.449291,-0.10021 0.850308,-0.37968 1.304918,-0.45202 0.08481,-0.0135 0.09449,0.14467 0.126948,0.22417 0.0763,0.18687 0.220093,0.73058 0.126468,0.88719 -0.09009,0.1507 -0.02724,-0.3501 -0.04087,-0.52515 -0.04254,-0.14133 -0.01573,-0.0542 0.0666,0.26521 0,0 -2.810602,0.50539 -2.810602,0.50539 v 0 c 0.07189,0.23717 0.08095,0.25675 0.01284,0.0635 -0.0225,-0.20411 -0.0368,-0.40929 -0.06749,-0.61233 -0.02112,-0.13978 0.01612,0.28279 0.03877,0.42234 0.0068,0.0418 0.01429,0.0927 0.0488,0.1172 0.0237,0.0168 -0.02936,-0.0695 -0.0062,-0.087 1.149618,-0.86723 1.404099,-0.38049 1.048518,-0.91532 -0.03244,-0.0566 -0.06944,-0.11083 -0.09731,-0.16981 -0.03432,-0.0726 -0.125384,-0.34944 -0.147145,-0.4091 -0.05481,-0.15024 -0.125434,-0.29447 -0.178394,-0.44538 -0.02557,-0.0729 -0.0425,-0.14848 -0.06375,-0.22272 -0.011,-0.10303 -0.02489,-0.27825 -0.09757,-0.36292 -0.04307,-0.0502 -0.09659,-0.0905 -0.148188,-0.13188 -0.301571,-0.2417 -0.259243,-0.19568 -0.629661,-0.39775 0,0 0.02988,-0.0598 0.02988,-0.0598 z"
       inkscape:connector-curvature="0" />
    <path
       style="opacity:0.86400003;fill:#6d8d12;fill-opacity:1;fill-rule:nonzero;stroke:#020306;stroke-width:1;stroke-linecap:round;stroke-miterlimit:4;stroke-dasharray:none;stroke-dashoffset:0;stroke-opacity:1"
       id="path4509"
       d="m 9.7311071,275.78677 c 0.5080309,0.12364 1.0336199,0.1309 1.5487749,0.0491 0.351389,-0.0558 0.534199,-0.11477 0.884837,-0.20791 0.143315,-0.039 0.285799,-0.0811 0.429946,-0.11688 0.609082,-0.15111 0.182439,-0.0214 0.775241,-0.1839 0.244026,-0.0669 0.483717,-0.14934 0.727335,-0.21797 0.217542,-0.0538 0.399657,-0.19356 0.607801,-0.26905 0.09569,-0.0347 0.140519,-0.0278 0.218866,-0.0702 0.01469,1.4e-4 0.03013,0.005 0.04408,4.2e-4 0.0072,-0.002 -0.02482,-10e-4 -0.02129,-0.008 0.03421,-0.0651 0.114975,-0.058 0.171769,-0.0529 0.173008,0.0268 0.339605,-0.008 0.505654,-0.0572 0.04776,-0.014 0.09247,-0.0375 0.140462,-0.0507 0.05693,-0.0156 0.115662,-0.0237 0.173493,-0.0356 0.329858,-0.0854 0.644286,-0.21797 0.982275,-0.27084 0.143692,-0.0785 0.228473,-0.0565 0.381191,-0.044 0.01177,0.0332 0.03971,0.0646 0.03532,0.0995 -0.02021,0.16091 -0.204967,0.31531 -0.306667,0.42237 -0.210799,0.2219 -0.01855,0.0476 -0.237666,0.23534 -0.124917,0.10346 -0.190753,0.27384 -0.325845,0.3669 -0.02323,0.016 -0.05113,0.0238 -0.0767,0.0357 -0.03922,0.0392 -0.01609,0.0213 -0.07129,0.0513 0,0 -0.03055,-0.0594 -0.03055,-0.0594 v 0 c 0.04757,-0.0223 0.02116,-0.007 0.07513,-0.0531 0.173542,-0.0687 0.248517,-0.27571 0.385872,-0.3922 0.208793,-0.1774 0.02303,-0.0104 0.234163,-0.23212 0.04218,-0.0443 0.09033,-0.0828 0.131034,-0.12849 0.108053,-0.12125 0.08286,-0.11155 0.155852,-0.24165 0.0074,-0.0132 0.01721,-0.025 0.02581,-0.0375 -0.155592,-0.013 -0.216517,-0.0337 -0.365462,0.0434 -0.337168,0.0514 -0.649796,0.18725 -0.979179,0.27028 -0.05474,0.011 -0.110383,0.0182 -0.164217,0.033 -0.05051,0.0139 -0.09773,0.0381 -0.14799,0.0529 -0.172573,0.0507 -0.347496,0.0859 -0.527189,0.0586 -0.05406,-0.006 -0.0634,-0.0145 -0.106806,0.0187 -0.05104,0.0391 -0.04589,0.0631 -0.04958,0.0341 -0.0784,0.042 -0.134107,0.04 -0.222364,0.072 -0.211459,0.0768 -0.396614,0.21877 -0.617881,0.27279 -0.244208,0.0688 -0.484458,0.15142 -0.729075,0.21843 -0.601591,0.16482 -0.160367,0.0313 -0.774086,0.1836 -0.144275,0.0358 -0.286886,0.078 -0.430329,0.11698 -0.353579,0.0938 -0.539508,0.15367 -0.894175,0.2097 -0.523965,0.0828 -1.058382,0.0749 -1.5749379,-0.0512 0,0 0.018357,-0.0642 0.018357,-0.0642 z"
       inkscape:connector-curvature="0" />
    <path
       style="opacity:0.86400003;fill:#6d8d12;fill-opacity:1;fill-rule:nonzero;stroke:#020306;stroke-width:1;stroke-linecap:round;stroke-miterlimit:4;stroke-dasharray:none;stroke-dashoffset:0;stroke-opacity:1"
       id="path4511"
       d="m 10.950307,278.8711 c 0.126475,0.16926 0.246739,0.34108 0.354133,0.52265 0.01641,0.0277 0.07402,0.11414 0.08372,0.14234 0.01312,0.0381 0.01632,0.079 0.02449,0.11849 0.07335,0.35059 0.103998,0.68519 0.225734,1.02554 0.08305,0.14949 0.125092,0.31973 0.15729,0.48677 0.0092,0.0478 0.0088,0.0971 0.01886,0.14477 0.01305,0.062 0.03832,0.12085 0.05364,0.18231 -0.0065,0.14541 0.07415,0.2669 0.07146,0.41116 0,0 -0.06679,-0.002 -0.06679,-0.002 v 0 c 0.0062,-0.13715 -0.08224,-0.25397 -0.06952,-0.39303 -0.0158,-0.064 -0.04138,-0.12541 -0.05507,-0.18988 -0.0096,-0.0451 -0.0087,-0.0919 -0.01742,-0.13712 -0.03184,-0.16516 -0.07287,-0.33283 -0.155395,-0.48051 -0.0522,-0.14672 -0.07466,-0.19215 -0.104416,-0.34354 -0.04522,-0.23001 -0.06883,-0.46402 -0.123999,-0.69182 -0.0058,-0.0329 -0.0066,-0.067 -0.01728,-0.0987 -0.009,-0.0267 -0.06864,-0.11676 -0.08332,-0.14164 -0.105249,-0.17828 -0.223729,-0.34662 -0.347449,-0.51302 0,0 0.05133,-0.0428 0.05133,-0.0428 z"
       inkscape:connector-curvature="0" />
    <path
       style="opacity:0.86400003;fill:#6d8d12;fill-opacity:1;fill-rule:nonzero;stroke:#020306;stroke-width:1;stroke-linecap:round;stroke-miterlimit:4;stroke-dasharray:none;stroke-dashoffset:0;stroke-opacity:1"
       id="path4513"
       d="m 18.769461,278.34396 c -0.169048,0.23244 -0.33875,0.49169 -0.553531,0.68774 -0.06203,0.0566 -0.537888,0.37166 -0.599198,0.41466 -0.239832,0.16819 -0.47503,0.3429 -0.713397,0.51316 -0.429773,0.31139 -0.838042,0.65378 -1.236006,1.00472 -0.103819,0.0915 -0.200154,0.19142 -0.304835,0.28199 -0.110395,0.0955 -0.394642,0.31588 -0.527778,0.41993 -0.177415,0.13958 -0.38229,0.24124 -0.560165,0.38008 -0.181773,0.14188 -0.278047,0.26822 -0.430159,0.44111 0,0 -0.05014,-0.0442 -0.05014,-0.0442 v 0 c 0.0716,-0.0812 0.139074,-0.16623 0.214813,-0.24357 0.231961,-0.23689 0.513555,-0.39934 0.784507,-0.5861 0.129405,-0.10112 0.417145,-0.32427 0.523551,-0.41633 0.105393,-0.0912 0.202432,-0.1917 0.306962,-0.28388 0.399364,-0.35217 0.809122,-0.69568 1.240413,-1.00815 0.238838,-0.1706 0.47452,-0.34563 0.714825,-0.51415 0.03752,-0.0263 0.540262,-0.36146 0.586811,-0.40386 0.21296,-0.19395 0.3816,-0.4519 0.548955,-0.68202 0,0 0.05437,0.0388 0.05437,0.0388 z"
       inkscape:connector-curvature="0" />
    <path
       style="opacity:0.86400003;fill:#6d8d12;fill-opacity:1;fill-rule:nonzero;stroke:#020306;stroke-width:1;stroke-linecap:round;stroke-miterlimit:4;stroke-dasharray:none;stroke-dashoffset:0;stroke-opacity:1"
       id="path4515"
       d="m 5.6181524,286.07581 c 0.5145442,0.0605 0.6147371,0.0835 1.132365,0.0998 0.1607408,0.005 0.3222205,0.0136 0.482464,-5e-5 0.1669153,-0.0142 0.3299376,-0.0585 0.4956382,-0.0831 0.6766091,-0.10046 0.7271345,-0.0926 1.4725094,-0.15902 1.164389,-0.14525 2.337152,-0.16201 3.508419,-0.17552 1.179605,-0.0136 2.358843,-0.0229 3.538529,-0.024 0.59475,-0.024 1.186419,-0.0972 1.780781,-0.12676 0.346039,-0.0172 0.692856,-0.0148 1.038927,-0.0314 1.175176,-0.0563 0.78248,-0.0737 1.895173,-0.11741 0.284699,-0.0112 0.569717,-0.0118 0.854577,-0.0177 0.55134,-0.0611 1.106885,-0.0625 1.659173,-0.10911 0.867984,-0.0733 0.674793,-0.10686 1.534711,-0.14986 0.647114,-0.0324 1.079949,-0.0157 1.726282,-0.006 1.112872,0.0496 2.226215,0.0417 3.33964,0.0296 0.274045,-0.001 0.292907,0.0276 0.528931,-0.0659 0.07089,-0.0281 0.122621,-0.0792 0.118213,-0.0871 -0.0047,-0.008 -0.01815,0.006 -0.02722,0.009 0,0 0.0517,-0.0423 0.0517,-0.0423 v 0 c 0.009,0.0252 0.02891,0.0489 0.02701,0.0756 -0.0024,0.0317 -0.136652,0.10309 -0.151183,0.10869 -0.246703,0.095 -0.268327,0.0675 -0.546724,0.0685 -1.113994,0.0121 -2.227906,0.02 -3.341341,-0.0296 -0.642233,-0.009 -1.076944,-0.0261 -1.719805,0.006 -0.852231,0.0426 -0.673753,0.0771 -1.536278,0.14997 -0.553136,0.0467 -1.109539,0.0481 -1.661728,0.10922 -0.284046,0.006 -0.568251,0.006 -0.852138,0.0176 -1.103545,0.0434 -0.730606,0.0617 -1.896975,0.11749 -0.345117,0.0165 -0.690979,0.0141 -1.036065,0.0312 -0.595965,0.0296 -1.189224,0.10318 -1.785597,0.12694 -1.17946,10e-4 -2.35847,0.0104 -3.53785,0.024 -1.169536,0.0135 -2.340567,0.0301 -3.5032294,0.17526 -0.7518847,0.067 -0.7864014,0.0577 -1.4674553,0.15837 -0.1693381,0.025 -0.3360523,0.0696 -0.5066229,0.084 -0.1615532,0.0136 -0.3243405,0.005 -0.4863877,-6e-5 -0.5208315,-0.0166 -0.6218738,-0.0397 -1.139426,-0.10062 0,0 0.010986,-0.0659 0.010986,-0.0659 z"
       inkscape:connector-curvature="0" />
    <path
       style="opacity:0.86400003;fill:#6d8d12;fill-opacity:1;fill-rule:nonzero;stroke:#020306;stroke-width:1;stroke-linecap:round;stroke-miterlimit:4;stroke-dasharray:none;stroke-dashoffset:0;stroke-opacity:1"
       id="path4517"
       d="m 37.397486,266.26671 c 0.320569,0.12016 0.203388,0.0627 0.487103,0.21844 0.0396,0.0217 0.07485,0.0529 0.117668,0.0672 0.0588,0.0197 0.358405,-0.0437 0.400288,-0.05 0.618654,-0.0378 1.23925,-0.0122 1.858489,-0.006 0.16664,0.002 0.334121,0.0209 0.499936,0.004 0.150198,-0.0151 0.294624,-0.0659 0.441936,-0.0989 0.669414,-0.1708 1.310785,-0.43195 1.971617,-0.63016 0.470421,-0.14111 0.0536,0.007 0.439536,-0.13649 0.0648,-0.0341 0.134922,-0.0597 0.194387,-0.1024 0.303792,-0.21837 -0.06754,-0.0509 0.304501,-0.25072 0.06645,-0.0357 0.140515,-0.055 0.209314,-0.086 0.123156,-0.0553 0.24311,-0.11759 0.366062,-0.17338 0.15181,-0.0574 0.290018,-0.14949 0.44659,-0.1953 0.05237,-0.0153 0.109307,-0.0128 0.160719,-0.0311 0.04513,-0.0161 0.122174,-0.0786 0.163867,-0.11062 0.02674,-0.0177 0.05154,-0.0387 0.08022,-0.053 0.02719,-0.0135 0.05893,-0.0163 0.08608,-0.0299 0.01162,-0.006 0.01759,-0.0193 0.02784,-0.0273 0.04881,-0.038 0.0965,-0.0652 0.153416,-0.0902 0.07077,-0.0516 0.145391,-0.0699 0.230161,-0.0798 0,0 0.0069,0.0665 0.0069,0.0665 v 0 c -0.07911,0.007 -0.144926,0.0277 -0.211125,0.0749 -0.08444,0.0335 -0.11599,0.0832 -0.186036,0.1193 -0.02188,0.0113 -0.04836,0.0114 -0.07043,0.0223 -0.02735,0.0135 -0.05097,0.0335 -0.07645,0.0503 -0.05795,0.044 -0.123598,0.0985 -0.191937,0.12314 -0.04743,0.0171 -0.100288,0.0135 -0.148693,0.0276 -0.155552,0.0452 -0.292624,0.13731 -0.443471,0.19398 -0.123764,0.0561 -0.244398,0.11903 -0.368491,0.17443 -0.06457,0.0288 -0.134289,0.0461 -0.196775,0.0792 -0.317101,0.16794 -0.02315,0.0493 -0.311148,0.25472 -0.06194,0.0442 -0.134805,0.0706 -0.202208,0.10588 -0.272819,0.10101 -0.554037,0.17065 -0.830535,0.26268 -0.527544,0.17561 -1.05121,0.36474 -1.589394,0.50656 -0.152321,0.0335 -0.301786,0.0849 -0.456965,0.1005 -0.165912,0.0167 -0.333494,-0.002 -0.500237,-0.004 -0.615677,-0.007 -1.232656,-0.0319 -1.847786,0.005 -0.102468,0.0152 -0.339217,0.0764 -0.443283,0.0419 -0.04235,-0.014 -0.07712,-0.0449 -0.116194,-0.0664 -0.27848,-0.1535 -0.159687,-0.0951 -0.481746,-0.21587 0,0 0.02633,-0.0614 0.02633,-0.0614 z"
       inkscape:connector-curvature="0" />
    <path
       style="opacity:0.86400003;fill:#6d8d12;fill-opacity:1;fill-rule:nonzero;stroke:#020306;stroke-width:1;stroke-linecap:round;stroke-miterlimit:4;stroke-dasharray:none;stroke-dashoffset:0;stroke-opacity:1"
       id="path4519"
       d="m 42.124831,267.14757 c -0.177128,0.36289 -0.365808,0.72107 -0.568624,1.07036 -0.04293,0.0739 -0.09231,0.14403 -0.134388,0.21845 -0.198786,0.35162 0.03064,-0.005 -0.167698,0.29334 -0.02516,0.0364 -0.04804,0.0744 -0.0755,0.10907 -0.16679,0.21056 -0.04786,0.0139 -0.195162,0.26972 -0.02663,0.0462 -0.164986,0.30589 -0.211164,0.35959 -0.04286,0.0498 -0.09901,0.0865 -0.148508,0.12974 -0.15975,0.14652 -0.331417,0.28782 -0.470011,0.45577 -0.24225,0.29355 0.05303,-0.0187 -0.222289,0.26106 -0.155332,0.2076 -0.389679,0.32481 -0.590889,0.47924 -0.156231,0.0688 -0.236511,0.22394 -0.368543,0.32225 -0.06428,0.0479 -0.143336,0.0627 -0.208976,0.10827 -0.0204,0.009 -0.04079,0.0181 -0.06119,0.0272 0,0 -0.02662,-0.0613 -0.02662,-0.0613 v 0 c 0.01683,-0.007 0.03364,-0.0142 0.05046,-0.0213 0.06281,-0.0413 0.151583,-0.0651 0.200719,-0.1017 0.133466,-0.0995 0.216304,-0.25604 0.373546,-0.32648 0.199303,-0.15199 0.430163,-0.26854 0.58396,-0.47313 0.253489,-0.25541 -0.01799,0.0297 0.221421,-0.26017 0.140084,-0.1696 0.313431,-0.31234 0.47483,-0.46036 0.04515,-0.0382 0.09683,-0.0698 0.135464,-0.11456 0.04595,-0.0532 0.185383,-0.3152 0.210621,-0.3587 0.158329,-0.2729 0.03171,-0.0642 0.19739,-0.27317 0.02723,-0.0343 0.04989,-0.0721 0.07484,-0.10809 0.184568,-0.2758 -0.02847,0.0535 0.166388,-0.2913 0.04157,-0.0736 0.09045,-0.1428 0.132882,-0.21587 0.202332,-0.34846 0.390597,-0.70577 0.567272,-1.0678 0,0 0.05976,0.0299 0.05976,0.0299 z"
       inkscape:connector-curvature="0" />
    <path
       style="opacity:0.86400003;fill:#6d8d12;fill-opacity:1;fill-rule:nonzero;stroke:#020306;stroke-width:1;stroke-linecap:round;stroke-miterlimit:4;stroke-dasharray:none;stroke-dashoffset:0;stroke-opacity:1"
       id="path4521"
       d="m 37.549653,271.23134 c 0.125648,0.34667 0.232085,0.70575 0.268576,1.07443 0.02683,0.27104 -0.0061,0.54417 -0.02894,0.81401 -0.02836,0.44071 -0.0024,0.88235 -0.0013,1.32354 -2.64e-4,0.0812 0.0052,0.16256 -0.0011,0.24347 -0.01558,0.20185 -0.05749,0.2907 -0.103346,0.49357 -0.06047,0.26752 -0.09866,0.53907 -0.157994,0.80699 -0.02217,0.10583 -0.04436,0.21165 -0.06654,0.31747 -0.02373,0.096 -0.05081,0.19127 -0.07123,0.28805 -0.05455,0.2586 -0.0094,0.19775 -0.107209,0.4486 -0.105048,0.21611 -0.06227,0.11483 -0.13329,0.30168 -0.0021,0.1246 -0.02389,0.24756 -0.03395,0.37157 -0.0021,0.0277 -0.0038,0.0554 -0.0043,0.0831 -2.65e-4,0.0177 0.0065,0.0361 0.0019,0.0532 -0.0065,0.0239 -0.02294,0.0439 -0.03442,0.0658 -0.0099,0.0172 -0.01979,0.0343 -0.02969,0.0515 0,0 -0.05787,-0.0334 -0.05787,-0.0334 v 0 c 0.01029,-0.0178 0.02058,-0.0356 0.03087,-0.0534 0.04108,-0.0478 0.02191,-0.1098 0.02708,-0.17349 0.01053,-0.12978 0.03144,-0.25854 0.03799,-0.38868 0.07236,-0.18924 0.0296,-0.0894 0.132008,-0.298 0.09477,-0.24087 0.05224,-0.18921 0.106061,-0.44452 0.02024,-0.096 0.04713,-0.19047 0.07069,-0.28571 0.02222,-0.10607 0.04447,-0.21214 0.0667,-0.31821 0.05955,-0.26859 0.09779,-0.54083 0.158475,-0.80903 0.04259,-0.18824 0.08677,-0.28938 0.101283,-0.47736 0.0062,-0.0808 7.93e-4,-0.16203 0.0011,-0.24305 -0.0011,-0.44312 -0.02708,-0.88669 0.0016,-1.32932 0.02241,-0.26428 0.05559,-0.53247 0.02952,-0.79795 -0.03585,-0.36507 -0.14146,-0.72054 -0.265965,-1.06372 0,0 0.06339,-0.0211 0.06339,-0.0211 z"
       inkscape:connector-curvature="0" />
    <path
       style="opacity:0.86400003;fill:#6d8d12;fill-opacity:1;fill-rule:nonzero;stroke:#020306;stroke-width:1;stroke-linecap:round;stroke-miterlimit:4;stroke-dasharray:none;stroke-dashoffset:0;stroke-opacity:1"
       id="path4523"
       d="m 38.364842,272.11857 c 0.07862,-0.25837 0.466109,-0.2595 0.576175,-0.48517 0.06744,-0.13827 -0.08901,-0.40182 0.05407,-0.45834 0.156146,-0.0617 0.268398,0.21087 0.426029,0.26867 0.0046,0.002 0.394348,-0.0652 0.408964,-0.0677 0.263358,-0.0472 0.496731,-0.17872 0.74667,-0.26564 0.07302,-0.0254 0.147084,-0.0476 0.220628,-0.0715 0.09492,-0.0333 0.189846,-0.0667 0.284768,-0.1 0.765519,-0.29366 -0.07746,0.0365 0.674291,-0.27881 0.257477,-0.10798 0.312589,-0.11394 0.55948,-0.2248 0.733322,-0.32928 -0.107431,0.0223 0.632714,-0.28089 0.323987,-0.0686 0.630452,-0.19496 0.934019,-0.32372 0.09063,-0.0385 0.177477,-0.0866 0.270904,-0.11763 0.475909,-0.12289 0.252383,-0.0549 0.672166,-0.19874 0.315534,-0.11232 0.160875,-0.0515 0.413107,-0.15866 0.124524,-0.0529 0.224854,-0.11228 0.356153,-0.0611 0.02098,-0.0272 0.189402,-0.0843 0.201486,-0.0707 0.07089,0.0801 0.03411,0.19199 0.02653,0.2814 -0.01839,0.42496 -0.07053,0.84414 -0.203203,1.24918 -0.212018,0.51389 -0.306025,1.06427 -0.418846,1.6056 -0.07096,0.37729 -0.174209,0.74747 -0.266586,1.11985 -0.02813,0.11338 -0.05195,0.2279 -0.08409,0.3402 -0.168947,0.59021 -0.04704,0.0263 -0.158694,0.605 -0.01378,0.0938 -0.03264,0.18706 -0.04138,0.2815 -0.0091,0.0982 -0.0058,0.19722 -0.01206,0.29566 -0.02442,0.387 -0.02635,0.19242 -0.04381,0.56751 -0.0097,0.20757 -0.0062,0.26068 -0.0031,0.45301 0.0021,0.0534 -0.0019,0.10742 0.0062,0.16029 0.01312,0.0865 0.04208,0.12823 0.07057,0.20463 0.03444,0.0924 0.05388,0.18957 0.07353,0.28574 0.0067,0.0855 0.114795,0.19484 0.137448,0.26803 0.07327,0.2367 -0.05182,-0.0762 0.03368,0.12828 0.02717,0.10183 0.103624,0.17311 0.110093,0.28244 0.0021,0.0367 -0.01064,0.0728 -0.01659,0.10918 -0.04334,0.12469 0.05003,0.14092 0.07311,0.21996 0.01331,0.0456 0.0038,0.0838 -0.0016,0.1295 -0.02,0.10094 -0.01161,0.20246 -0.0085,0.30435 0.118838,0.0905 0.08044,0.25644 0.06549,0.38364 -0.0043,0.0727 -0.02495,0.0599 0.01924,0.0703 0,0 -0.04595,0.0485 -0.04595,0.0485 v 0 c -0.05768,-0.0763 -0.04534,-0.0338 -0.03965,-0.12659 0.01667,-0.14171 0.03775,-0.25882 -0.06591,-0.3738 -0.0032,-0.10525 -0.0114,-0.21028 0.009,-0.31456 0.0038,-0.0292 0.01656,-0.0592 0.0099,-0.0879 -0.005,-0.0217 -0.05261,-0.0724 -0.05665,-0.0807 -0.04503,-0.0922 -0.03345,-0.0913 -0.02453,-0.18352 0.0048,-0.0296 0.01717,-0.0584 0.01646,-0.0883 -0.0024,-0.10351 -0.08542,-0.16983 -0.106175,-0.26791 -0.0094,-0.0249 -0.01881,-0.0498 -0.0282,-0.0746 -0.0011,-0.016 0.0013,-0.0326 -0.0029,-0.048 -0.0204,-0.0727 -0.143251,-0.19938 -0.14332,-0.2849 -0.0186,-0.092 -0.03691,-0.18521 -0.06979,-0.2735 -0.03357,-0.0901 -0.05966,-0.12237 -0.0756,-0.2276 -0.0081,-0.0534 -0.0042,-0.10787 -0.0063,-0.1618 -0.0031,-0.19516 -0.0065,-0.24805 0.0033,-0.45864 0.01754,-0.3763 0.01924,-0.18023 0.04371,-0.56573 0.0064,-0.10076 0.0034,-0.20209 0.0127,-0.30262 0.0089,-0.0954 0.02793,-0.18965 0.04189,-0.28448 0.116578,-0.59861 -0.0105,-0.0146 0.159425,-0.60832 0.03215,-0.11234 0.05598,-0.22689 0.08411,-0.3403 0.09217,-0.37155 0.195231,-0.7409 0.266018,-1.11735 0.113326,-0.54376 0.207949,-1.09657 0.420772,-1.61281 0.131625,-0.40002 0.18162,-0.81439 0.20012,-1.23413 0.005,-0.0563 0.0026,-0.1137 0.01508,-0.16879 0.0038,-0.0168 0.03358,-0.0232 0.03237,-0.0404 -0.0013,-0.0186 -0.215736,0.0664 -0.234826,0.0659 -0.02442,-0.0115 -0.04591,-0.0254 -0.07507,-0.0217 -0.215334,0.0272 -0.429604,0.21654 -0.646618,0.24305 -0.421499,0.14415 -0.199522,0.0771 -0.667199,0.19682 -0.09379,0.0311 -0.18097,0.0795 -0.271952,0.11806 -0.303628,0.12875 -0.610177,0.25547 -0.93426,0.32383 -0.728128,0.29799 0.100002,-0.048 -0.63251,0.2808 -0.252336,0.11327 -0.295241,0.11397 -0.557885,0.22412 -0.75424,0.31632 0.08649,-0.0129 -0.679281,0.28079 -0.09544,0.0335 -0.190875,0.067 -0.286313,0.10049 -0.07262,0.0235 -0.145751,0.0455 -0.217861,0.0705 -0.253915,0.0881 -0.490998,0.22199 -0.758809,0.2689 -0.06553,0.0111 -0.131006,0.0227 -0.196604,0.0335 -0.06813,0.0112 -0.172349,-0.0286 -0.204591,0.0324 -0.06274,0.11882 0.09607,0.34401 -0.02498,0.40231 -0.136843,0.0659 -0.261779,-0.18925 -0.413652,-0.19107 -0.118714,-0.001 -0.542126,0.40493 -0.593133,0.45027 0,0 -0.04348,-0.0507 -0.04348,-0.0507 z"
       inkscape:connector-curvature="0" />
    <path
       style="opacity:0.86400003;fill:#6d8d12;fill-opacity:1;fill-rule:nonzero;stroke:#020306;stroke-width:1;stroke-linecap:round;stroke-miterlimit:4;stroke-dasharray:none;stroke-dashoffset:0;stroke-opacity:1"
       id="path4525"
       d="m 39.103109,273.31677 c 0.288256,0.10463 0.454753,0.17928 0.761561,0.23133 0.296854,0.0504 0.523462,0.0313 0.825878,0.0157 1.852628,-0.0956 -0.880454,0.0287 1.093899,-0.0585 0.17989,-0.003 0.359759,-0.008 0.53967,-0.008 0.16314,-6.6e-4 0.326576,0.0143 0.489405,0.004 0.349584,-0.0217 0.678157,-0.13716 1.015138,-0.21729 0.0249,-0.0312 0.03074,-0.0343 0.0095,-0.0175 0,0 0.06638,-0.008 0.06638,-0.008 v 0 c -0.01188,0.0687 0.004,0.0362 -0.06045,0.0901 -0.342725,0.0812 -0.675542,0.197 -1.031145,0.2191 -0.162292,0.0101 -0.325194,-0.005 -0.487799,-0.004 -0.179273,7.2e-4 -0.358505,0.006 -0.53776,0.008 -2.148118,0.0947 0.928256,-0.0446 -1.09437,0.0585 -0.312097,0.0159 -0.538464,0.0346 -0.844558,-0.0177 -0.31283,-0.0534 -0.481293,-0.12931 -0.775237,-0.23639 0,0 0.02988,-0.0598 0.02988,-0.0598 z"
       inkscape:connector-curvature="0" />
    <path
       style="opacity:0.86400003;fill:#6d8d12;fill-opacity:1;fill-rule:nonzero;stroke:#020306;stroke-width:1;stroke-linecap:round;stroke-miterlimit:4;stroke-dasharray:none;stroke-dashoffset:0;stroke-opacity:1"
       id="path4527"
       d="m 39.332593,275.88742 c 0.47013,0.1455 0.955315,0.15867 1.442714,0.14863 0.230775,-0.005 0.46237,-0.002 0.692023,-0.025 0.555641,-0.0562 1.057699,-0.18407 1.601806,-0.30409 0.216533,-0.0611 0.555461,0.0211 0.649595,-0.18328 0.212188,-0.46062 -0.03348,-1.03658 0.133003,-1.51562 0.05363,-0.15431 0.302657,-0.23551 0.456089,-0.1794 0.129114,0.0472 0.867137,0.93668 0.901449,1.09297 0.0634,0.28882 -0.05084,0.5892 -0.07626,0.8838 0,0 0.03454,-1.71548 0.03454,-1.71548 v 0 c 0.02643,0.29565 0.03069,0.59412 0.0793,0.88694 0.07597,0.45765 0.409559,1.03114 0.09755,1.51267 -0.113443,0.17508 -0.401802,0.32773 -0.583759,0.22568 -1.929638,-1.08222 -0.199231,-1.35974 -1.677117,-0.94303 -0.553082,0.12192 -1.049099,0.24856 -1.613781,0.30562 -0.230454,0.0233 -0.462854,0.0204 -0.694436,0.0251 -0.494575,0.01 -0.986903,-0.004 -1.463844,-0.15205 0,0 0.02114,-0.0634 0.02114,-0.0634 z"
       inkscape:connector-curvature="0" />
    <path
       style="opacity:0.86400003;fill:#6d8d12;fill-opacity:1;fill-rule:nonzero;stroke:#020306;stroke-width:1;stroke-linecap:round;stroke-miterlimit:4;stroke-dasharray:none;stroke-dashoffset:0;stroke-opacity:1"
       id="path4529"
       d="m 37.802092,277.38878 c -0.06863,0.42395 -0.265364,0.84652 -0.205899,1.27186 0.01892,0.13528 0.262768,0.0773 0.397592,0.0992 0.315894,0.0514 0.572294,0.0301 0.892778,0.0157 0.702379,-0.0314 0.640819,-0.0333 1.376612,-0.0918 0.742079,-0.0733 1.487842,-0.16395 2.216089,-0.32944 0.229801,-0.0522 0.455834,-0.11999 0.682281,-0.18524 0.23631,-0.0681 0.573952,-0.007 0.705823,-0.21479 0.290042,-0.45656 0.283613,-1.04396 0.425416,-1.56593 1.501685,1.21352 0.814361,1.21727 2.171584,0.9568 0.164457,-0.0316 0.326069,-0.0765 0.489524,-0.11288 0.07265,-0.0162 0.148793,-0.0194 0.218741,-0.0448 0.01423,-0.005 0.02461,-0.0276 0.0185,-0.0415 -0.0045,-0.0103 -0.02101,0.008 -0.03153,0.0118 0,0 0.0444,-0.0499 0.0444,-0.0499 v 0 c 0.01386,0.0256 0.04514,0.0479 0.04155,0.0768 -0.01294,0.10442 -0.263093,0.1096 -0.276672,0.11263 -0.16475,0.0367 -0.327662,0.0819 -0.493421,0.11366 -0.269457,0.0517 -0.637744,-0.0755 -0.811678,0.13673 -0.359812,0.43895 -0.40336,1.06107 -0.605042,1.59161 -0.390646,-0.37373 -0.684913,-0.88648 -1.171937,-1.12118 -0.222155,-0.10705 -0.470805,0.14711 -0.707779,0.21535 -0.228163,0.0657 -0.45594,0.13383 -0.687475,0.18643 -0.730559,0.16596 -1.478669,0.25688 -2.223092,0.33038 -0.727295,0.0578 -0.684689,0.0612 -1.379607,0.092 -0.330821,0.0146 -0.585549,0.0357 -0.911288,-0.0177 -0.137075,-0.0225 -0.288909,-0.17869 -0.40422,-0.10124 -0.380878,0.25579 -0.627261,0.66972 -0.94089,1.00459 0,0 1.169622,-2.33925 1.169622,-2.33925 z"
       inkscape:connector-curvature="0" />
    <path
       style="opacity:0.86400003;fill:#6d8d12;fill-opacity:1;fill-rule:nonzero;stroke:#020306;stroke-width:1;stroke-linecap:round;stroke-miterlimit:4;stroke-dasharray:none;stroke-dashoffset:0;stroke-opacity:1"
       id="path4531"
       d="m 39.788464,280.00416 c -0.127576,0.5104 -0.08092,0.30885 -0.199961,0.84999 -0.02815,0.12794 -0.04675,0.2583 -0.08349,0.38405 -0.03626,0.12412 -0.09161,0.24187 -0.13497,0.36369 -0.228793,0.64281 -0.01016,0.0944 -0.317912,0.82403 -0.09934,0.18061 -0.191958,0.36509 -0.298016,0.54184 -0.13856,0.23092 -0.296789,0.44964 -0.435441,0.68051 -0.40195,0.66927 -0.392404,0.70027 -0.72073,1.34478 -0.08535,0.16756 -0.182028,0.32951 -0.260192,0.50054 -0.08905,0.19485 -0.160588,0.39724 -0.240884,0.59586 -0.228214,0.54852 -0.506,1.07422 -0.757677,1.61164 -0.151976,0.32453 -0.33034,0.77606 -0.504264,1.08252 -0.0677,0.11929 -0.159321,0.22333 -0.238982,0.335 -0.06625,0.0701 -0.135731,0.1372 -0.198745,0.21019 -0.227729,0.26379 -0.430913,0.54806 -0.657235,0.81306 -0.165621,0.19393 -0.333372,0.38635 -0.510048,0.57027 -0.262332,0.27308 -0.743868,0.70069 -1.019836,0.95102 -0.15199,0.13875 -0.299662,0.28239 -0.455973,0.41626 -0.793459,0.67955 -0.0024,-0.052 -0.75483,0.61089 -0.347816,0.30646 -0.316272,0.32776 -0.688332,0.61042 -0.114302,0.0868 -0.237373,0.16148 -0.356063,0.24222 -0.491987,0.35761 -0.127341,0.0883 -0.575648,0.4298 -0.07052,0.0537 -0.145757,0.10158 -0.212545,0.15988 -0.163367,0.14261 -0.05426,0.11854 -0.278736,0.18824 -0.0061,0.007 -0.01212,0.0133 -0.01818,0.02 0,0 -0.04423,-0.0501 -0.04423,-0.0501 v 0 c 0.01426,-0.0113 0.0285,-0.0225 0.04275,-0.0338 0.192868,-0.0587 0.09309,-0.0334 0.25822,-0.17777 0.06656,-0.0582 0.141632,-0.10586 0.211958,-0.15944 0.44976,-0.34264 0.08528,-0.0734 0.57884,-0.43211 0.11689,-0.0794 0.238135,-0.1527 0.35067,-0.23815 0.367507,-0.27902 0.343173,-0.30632 0.688631,-0.61066 0.775573,-0.68325 -0.05864,0.0859 0.752436,-0.6088 0.15636,-0.13392 0.304085,-0.27761 0.456128,-0.41641 0.271725,-0.24646 0.756095,-0.67672 1.014929,-0.94608 0.175902,-0.18306 0.342934,-0.37457 0.507806,-0.56762 0.227486,-0.26637 0.431784,-0.55205 0.660776,-0.81711 0.06104,-0.0707 0.128598,-0.13541 0.192897,-0.20311 0.07772,-0.10841 0.167344,-0.2092 0.233177,-0.32522 0.172998,-0.30486 0.353341,-0.76021 0.504521,-1.08304 0.250963,-0.53592 0.527982,-1.06014 0.755632,-1.60708 0.08118,-0.20054 0.153614,-0.40485 0.243541,-0.60163 0.07802,-0.17072 0.174522,-0.33239 0.259733,-0.49964 0.329946,-0.64761 0.320358,-0.67849 0.724194,-1.35088 0.137898,-0.2296 0.295278,-0.44712 0.433184,-0.67671 0.104949,-0.17472 0.196662,-0.35706 0.294992,-0.5356 0.308972,-0.73178 0.08514,-0.17177 0.316851,-0.82135 0.04239,-0.11882 0.09692,-0.23349 0.1323,-0.35459 0.03676,-0.12585 0.05538,-0.2563 0.08355,-0.38435 0.119491,-0.54309 0.07276,-0.34121 0.200943,-0.85385 0,0 0.06425,0.0184 0.06425,0.0184 z"
       inkscape:connector-curvature="0" />
    <path
       style="opacity:0.86400003;fill:#6d8d12;fill-opacity:1;fill-rule:nonzero;stroke:#020306;stroke-width:1;stroke-linecap:round;stroke-miterlimit:4;stroke-dasharray:none;stroke-dashoffset:0;stroke-opacity:1"
       id="path4533"
       d="m 40.224064,283.33585 c 0.317796,-0.0221 0.645215,-0.0546 0.941583,-0.18204 0.56361,-0.24233 -0.228494,0.0228 0.540105,-0.25785 0.126952,-0.0464 0.258548,-0.0788 0.387823,-0.11826 0.352513,-0.10426 0.708113,-0.20621 1.053889,-0.33182 0.08546,-0.031 0.167743,-0.0703 0.252372,-0.10353 0.07883,-0.031 0.162328,-0.051 0.237946,-0.0891 0.07238,-0.0365 0.135548,-0.089 0.203324,-0.13347 0.364641,-0.20404 0.08432,-0.0635 0.485664,-0.2201 0.10314,-0.0402 0.203149,-0.0883 0.306684,-0.12755 0.155,-0.0587 0.325696,-0.0988 0.477027,-0.16864 0.09152,-0.0422 0.177787,-0.095 0.266682,-0.14254 0.183282,-0.0417 0.342204,-0.20407 0.525214,-0.24469 0.0314,-0.007 0.06437,0.002 0.0965,1.6e-4 0.02151,-0.001 0.08522,-0.013 0.107252,-0.0169 0.01953,-0.002 0.03997,4.5e-4 0.05861,-0.006 0.02721,-0.009 0.161711,-0.11923 0.18647,-0.0429 0.03248,0.10017 -0.06131,0.23255 -0.09893,0.3055 -5.3e-4,10e-4 -0.188775,0.32798 -0.193961,0.33835 -0.01662,0.0332 -0.02315,0.0709 -0.04034,0.10387 -0.06017,0.11528 -0.149817,0.22082 -0.217585,0.33219 -0.10359,0.19146 -0.239149,0.36033 -0.393446,0.51301 -0.04807,0.0476 -0.102042,0.089 -0.149508,0.13712 -0.4489,0.45551 0.201784,-0.16395 -0.306996,0.31307 -0.167926,0.16378 -0.366834,0.28752 -0.544132,0.4404 -0.05966,0.0514 -0.109802,0.11423 -0.173884,0.16004 -0.06695,0.0479 -0.144237,0.0793 -0.216358,0.11898 -0.0727,0.0548 -0.145407,0.10967 -0.218111,0.16451 -0.0727,0.0591 -0.34194,0.28082 -0.423911,0.33668 -0.07542,0.0514 -0.158202,0.0912 -0.234852,0.14075 -0.07722,0.0499 -0.149889,0.10659 -0.226509,0.15742 -0.114689,0.0761 -0.360157,0.22675 -0.480063,0.30094 -0.240136,0.0997 -0.432081,0.26869 -0.638905,0.41906 -0.07966,0.0579 -0.166447,0.10581 -0.244478,0.16589 -0.116208,0.0895 -0.223446,0.19009 -0.337534,0.28226 -0.127379,0.10291 -0.257847,0.20194 -0.386771,0.30291 -0.396076,0.27127 -0.15037,0.12302 -0.511908,0.30643 -0.04978,0.0252 -0.09649,0.0567 -0.147777,0.0788 -0.0569,0.0244 -0.11806,0.0377 -0.175734,0.0602 -0.400722,0.15658 0.0066,0.0207 -0.37533,0.14171 -0.204676,0.0431 -0.348194,0.20939 -0.531688,0.29174 -0.065,0.0292 -0.06009,-0.0113 -0.127048,-0.0246 -0.0172,-0.003 -0.03473,0.005 -0.05209,0.007 -0.02297,0.006 -0.04588,0.0116 -0.06894,0.017 -0.02474,0.006 -0.04919,0.0191 -0.07441,0.0162 -0.08897,-0.0102 -0.05452,-0.0819 -0.19145,-0.0851 -0.03795,-0.009 -0.07742,-0.0137 -0.113866,-0.0278 -0.07606,-0.0294 -0.17339,-0.0987 -0.240345,-0.14079 -0.121595,-0.0764 -0.236509,-0.14644 -0.373113,-0.1913 -0.08883,-0.0454 -0.169691,-0.082 -0.266621,-0.10707 0,0 0.0173,-0.0645 0.0173,-0.0645 v 0 c 0.09812,0.0271 0.181385,0.0601 0.270489,0.10824 0.141798,0.0481 0.261429,0.11879 0.388093,0.19847 0.04889,0.0308 0.161116,0.10845 0.22033,0.13215 0.03252,0.013 0.0679,0.0173 0.101843,0.0259 0.06718,0.006 0.07989,-0.002 0.135252,0.0354 0.01146,0.008 0.02003,0.0192 0.02828,0.0303 0.0045,0.006 0.0021,0.0203 0.0096,0.0207 0.05254,0.003 0.101698,-0.0378 0.154045,-0.0346 0.02873,1e-5 0.05802,-0.006 0.08619,3e-5 0.01249,0.002 0.03955,0.0376 0.06146,0.027 0.186788,-0.0896 0.337891,-0.24947 0.54656,-0.29854 0.369147,-0.11617 -0.02969,0.016 0.373938,-0.14124 0.05436,-0.0212 0.112239,-0.0329 0.165833,-0.0559 0.05199,-0.0224 0.09934,-0.0543 0.149839,-0.0798 0.354214,-0.1791 0.105878,-0.0293 0.500063,-0.29901 0.128375,-0.10053 0.25827,-0.19914 0.385124,-0.30158 0.115843,-0.0935 0.22491,-0.19544 0.342877,-0.28629 0.0768,-0.0591 0.162324,-0.10615 0.240733,-0.16315 0.20877,-0.15177 0.402956,-0.32221 0.644996,-0.42332 0.117227,-0.0725 0.36485,-0.22454 0.4771,-0.29899 0.07789,-0.0517 0.151815,-0.10919 0.23033,-0.1599 0.07443,-0.0481 0.155009,-0.0863 0.228235,-0.13623 0.08141,-0.0555 0.353565,-0.27947 0.424659,-0.33725 0.07544,-0.0566 0.150881,-0.11319 0.226319,-0.16979 0.06769,-0.0365 0.14056,-0.0647 0.203081,-0.10947 0.06517,-0.0467 0.116308,-0.11043 0.177033,-0.16276 0.176167,-0.15182 0.373562,-0.2748 0.540546,-0.43728 0.4767,-0.44592 -0.132035,0.13261 0.307525,-0.31356 0.04633,-0.047 0.09907,-0.0874 0.146058,-0.13372 0.151241,-0.14921 0.283837,-0.31436 0.384977,-0.50191 0.02609,-0.0428 0.05088,-0.0864 0.07826,-0.12833 0.0032,-0.005 0.125246,-0.17631 0.134181,-0.19349 0.01863,-0.0358 0.0265,-0.0765 0.04454,-0.11262 0.0057,-0.0114 0.190495,-0.33221 0.19268,-0.33601 0.02673,-0.051 0.05083,-0.10355 0.0802,-0.15312 0.01328,-0.0224 0.0358,-0.0388 0.04734,-0.0622 0.02474,-0.0501 -0.170003,0.0704 -0.202819,0.055 -0.02982,0.005 -0.09272,0.0172 -0.120997,0.0179 -0.02302,5.3e-4 -0.04638,-0.0102 -0.06885,-0.005 -0.181091,0.0401 -0.337884,0.2003 -0.519266,0.24189 -0.09155,0.0487 -0.180459,0.10273 -0.274643,0.14613 -0.157467,0.0726 -0.313102,0.10648 -0.474858,0.16779 -0.104574,0.0396 -0.205587,0.0882 -0.309811,0.12876 -0.392912,0.15288 -0.109871,0.011 -0.471702,0.21317 -0.07212,0.0467 -0.139682,0.10134 -0.216376,0.14006 -0.07499,0.0379 -0.157838,0.0577 -0.236038,0.0884 -0.0862,0.0338 -0.170069,0.0736 -0.257109,0.10527 -0.346146,0.12577 -0.702143,0.2278 -1.055036,0.33218 -0.12686,0.0385 -0.256003,0.0702 -0.38058,0.1156 -0.733496,0.26718 0.01879,0.0188 -0.545674,0.25998 -0.303252,0.12956 -0.637725,0.16322 -0.962712,0.18546 0,0 0,-0.0668 0,-0.0668 z"
       inkscape:connector-curvature="0" />
    <path
       style="opacity:0.86400003;fill:#6d8d12;fill-opacity:1;fill-rule:nonzero;stroke:#020306;stroke-width:1;stroke-linecap:round;stroke-miterlimit:4;stroke-dasharray:none;stroke-dashoffset:0;stroke-opacity:1"
       id="path4535"
       d="m 37.237326,283.40935 c 0.132564,0.0772 0.258159,0.29552 0.397692,0.23173 0.453141,-0.20718 0.701839,-0.74613 1.159296,-0.94359 0.155257,-0.067 0.421701,0.0853 0.43943,0.2535 0.04945,0.46908 -0.301958,0.91944 -0.266194,1.38976 0.0105,0.13807 0.256042,0.10552 0.383937,0.15858 0.133752,0.0555 0.267335,0.11139 0.400999,0.16708 0.292839,0.1029 0.519441,0.32124 0.790131,0.46199 0.123732,0.0643 0.268936,0.2325 0.387165,0.15854 0.970756,-0.60727 0.576932,-1.31843 1.183015,-0.89315 0.133813,0.0939 0.258247,0.2005 0.387371,0.30074 0.07295,0.07 0.253209,0.1148 0.218835,0.20984 -0.151694,0.41938 -0.571873,0.71121 -0.705842,1.1366 -0.03458,0.10981 0.193503,0.1249 0.287694,0.1911 0.307174,0.2159 0.554411,0.47688 0.81149,0.7486 0.09287,0.0897 0.176898,0.1895 0.278607,0.269 0.09216,0.072 0.199403,0.12237 0.299511,0.18289 0.247724,0.14976 0.502166,0.28858 0.745738,0.44499 1.933372,1.24157 -1.150741,-0.68913 1.006968,0.65442 0.324437,0.15393 0.604774,0.38153 0.916133,0.55697 0.173415,0.0977 0.356602,0.17707 0.532587,0.27008 0.404347,0.21369 0.791038,0.44981 1.175327,0.69687 0.142036,0.0662 0.246256,0.19127 0.381683,0.26734 0.08191,0.046 0.131355,0.018 0.19459,0.0929 0.244893,0.29035 -0.102817,-0.0323 0.125865,0.17031 0.02925,0.0303 0.0535,0.0664 0.08777,0.0908 0.03133,0.0224 0.07003,0.032 0.105449,0.0471 0.156766,0.0668 0.332613,0.10043 0.480941,0.18571 0.104193,0.0599 0.196715,0.13814 0.295074,0.2072 0.226158,0.20941 0.495435,0.34805 0.776079,0.46817 0.199718,0.0855 0.318672,0.11749 0.49313,0.25111 0.05583,0.0559 0.122613,0.0958 0.19648,0.12313 0.0163,0.006 0.03474,0.005 0.05096,0.0112 0.09137,0.0462 0.0462,0.0264 0.135064,0.0604 0.06977,-0.0167 0.09375,0.0473 0.14691,0.0689 0.01146,0.005 0.02458,0.003 0.03685,0.004 0.02455,0.0112 0.04913,0.0223 0.07369,0.0335 0,0 -0.02835,0.0605 -0.02835,0.0605 v 0 c -0.01955,-0.01 -0.03913,-0.019 -0.0587,-0.0285 -0.02101,-0.005 -0.0431,-0.007 -0.06302,-0.016 -0.06823,-0.0293 -0.03075,-0.0712 -0.131437,-0.0604 -0.04319,-0.0168 -0.08323,-0.041 -0.126474,-0.0577 -0.02101,-0.008 -0.04438,-0.009 -0.06552,-0.0165 -0.0769,-0.0283 -0.149262,-0.0724 -0.207354,-0.12997 -0.16247,-0.12709 -0.291931,-0.16248 -0.480052,-0.2432 -0.28411,-0.12192 -0.557466,-0.26271 -0.786797,-0.47433 -0.09402,-0.0667 -0.182229,-0.14241 -0.282048,-0.20004 -0.181245,-0.10465 -0.439473,-0.12769 -0.608955,-0.24815 -0.03336,-0.0237 -0.05684,-0.0589 -0.08526,-0.0884 -0.320509,-0.31097 0.09866,0.11697 -0.118309,-0.16422 -0.04593,-0.0595 -0.138316,-0.0616 -0.195527,-0.0936 -0.134612,-0.0752 -0.23768,-0.20003 -0.378878,-0.26543 -0.382365,-0.24587 -0.767114,-0.4808 -1.169424,-0.6935 -0.177816,-0.094 -0.362799,-0.17443 -0.538038,-0.27316 -0.311242,-0.17536 -0.591344,-0.40308 -0.915768,-0.55675 -2.190646,-1.36433 0.937644,0.59434 -1.005774,-0.65369 -0.243842,-0.15659 -0.498879,-0.29504 -0.746561,-0.44549 -0.10409,-0.0632 -0.215061,-0.11673 -0.310978,-0.19178 -0.102468,-0.0802 -0.187156,-0.18076 -0.280731,-0.27114 -0.25363,-0.26821 -0.497054,-0.52557 -0.799954,-0.73888 -0.09211,-0.0649 -0.178089,-0.23251 -0.2813,-0.18735 -0.462473,0.20235 -0.802534,0.62072 -1.248733,0.8568 -0.0536,0.0284 -0.08658,-0.0849 -0.129871,-0.12739 0.296749,0.14417 -0.08248,-0.0374 -0.08078,-0.0539 0.04804,-0.4652 0.344667,-0.89358 0.339876,-1.36123 -0.0013,-0.14129 -0.23713,-0.15373 -0.35618,-0.22983 -0.474614,-0.30342 -0.274714,-0.18321 -0.780079,-0.45676 -0.133601,-0.0557 -0.26712,-0.11154 -0.400809,-0.167 -0.128069,-0.0531 -0.263914,-0.22731 -0.384463,-0.1588 -0.442627,0.25156 -0.67859,0.79629 -1.134819,1.02225 -0.148008,0.0733 -0.409679,-0.0836 -0.429194,-0.24762 -0.05888,-0.49484 0.275968,-0.98254 0.223851,-1.47813 -0.01633,-0.15513 -0.269412,-0.15733 -0.404117,-0.23599 0,0 0.04009,-0.0534 0.04009,-0.0534 z"
       inkscape:connector-curvature="0" />
    <path
       style="opacity:0.86400003;fill:#6d8d12;fill-opacity:1;fill-rule:nonzero;stroke:#020306;stroke-width:1;stroke-linecap:round;stroke-miterlimit:4;stroke-dasharray:none;stroke-dashoffset:0;stroke-opacity:1"
       id="path4537"
       d="m 52.761501,281.80033 c 0.204335,0.0594 0.428839,0.0799 0.608753,0.20357 0.08831,0.0607 0.197549,0.16726 0.277067,0.2379 0.13122,0.19371 0.318677,0.33515 0.487741,0.49294 0.135096,0.12609 0.188245,0.18083 0.313883,0.30599 7.94e-4,8.8e-4 0.165026,0.171 0.167301,0.17384 0.0285,0.0356 0.04784,0.0779 0.07693,0.11302 0.117859,0.14209 0.06548,0.0485 0.188302,0.17031 0.03093,0.0307 0.05612,0.0667 0.08418,0.1 0.168053,0.14534 0.284544,0.33548 0.447109,0.48666 0.121341,0.0445 0.209174,0.14689 0.321802,0.20907 0.08207,0.0588 0.181414,0.0826 0.271386,0.12539 0.237442,0.11297 -0.07378,-0.0175 0.132419,0.0667 0.130323,0.006 0.258548,-0.0201 0.389961,-0.0174 0.003,1.1e-4 0.130109,0.005 0.133593,0.004 0.07901,-0.0187 0.122913,-0.12076 0.173506,-0.1716 0.03232,-0.0325 0.06996,-0.0592 0.104947,-0.0888 0.03237,-0.0352 0.06757,-0.0681 0.09711,-0.10573 0.04102,-0.0523 0.07199,-0.11208 0.11412,-0.16347 0.05278,-0.0644 0.113892,-0.12147 0.16995,-0.18302 0.177858,-0.1953 0.354711,-0.38976 0.539258,-0.57885 0.05516,-0.0707 0.121914,-0.17029 0.199363,-0.22446 0.05924,-0.0414 0.139353,-0.0604 0.202684,-0.0945 0.294418,-0.15868 -0.139224,0.0535 0.13321,-0.0773 0,0 0.02863,0.0604 0.02863,0.0604 v 0 c -0.18973,0.0887 0.116898,-0.058 -0.135101,0.0782 -0.02175,0.0118 -0.164719,0.069 -0.183605,0.0819 -0.07502,0.0515 -0.145942,0.15687 -0.197369,0.2225 -0.1842,0.1887 -0.360458,0.383 -0.53817,0.5777 -0.05405,0.0592 -0.113295,0.11382 -0.164121,0.17583 -0.04402,0.0537 -0.07667,0.11597 -0.119727,0.17043 -0.03146,0.0398 -0.06889,0.0744 -0.103338,0.11167 -0.03185,0.0264 -0.0664,0.0498 -0.09553,0.0791 -0.143669,0.14469 -0.12781,0.21639 -0.360842,0.1927 -0.13939,-0.003 -0.27609,0.0303 -0.41412,0.0123 -0.02339,-0.01 -0.0468,-0.0197 -0.07021,-0.0295 -0.01961,-0.012 -0.03807,-0.0261 -0.05883,-0.0359 -0.09355,-0.0443 -0.196615,-0.0695 -0.282054,-0.13024 -0.116414,-0.0671 -0.209042,-0.16894 -0.334465,-0.21834 -0.164492,-0.15333 -0.283266,-0.34495 -0.45289,-0.49277 -0.02506,-0.0303 -0.04718,-0.0634 -0.07516,-0.0911 -0.138935,-0.13747 -0.06515,-0.0205 -0.201382,-0.18465 -0.02669,-0.0321 -0.04364,-0.0715 -0.06976,-0.10413 -0.0021,-0.003 -0.165026,-0.1715 -0.166264,-0.17278 -0.124179,-0.12372 -0.178099,-0.17923 -0.311486,-0.30372 -0.168862,-0.15761 -0.356687,-0.2989 -0.487373,-0.49261 -0.07516,-0.0668 -0.18301,-0.17146 -0.265824,-0.22983 -0.173898,-0.12256 -0.396253,-0.13705 -0.593961,-0.19733 0,0 0.01836,-0.0643 0.01836,-0.0643 z"
       inkscape:connector-curvature="0" />
    <path
       style="opacity:0.86400003;fill:#6d8d12;fill-opacity:1;fill-rule:nonzero;stroke:#020306;stroke-width:1;stroke-linecap:round;stroke-miterlimit:4;stroke-dasharray:none;stroke-dashoffset:0;stroke-opacity:1"
       id="path4539"
       d="m 59.72915,282.12109 c -0.278556,0.40967 -0.649849,0.76977 -0.835668,1.22901 -0.04631,0.11445 0.144811,0.20001 0.216871,0.30027 0.09972,0.13875 0.176196,0.25961 0.290906,0.38238 0.381768,0.40856 -0.139972,-0.18628 0.187545,0.19165 0.04081,0.11211 0.03662,0.0562 0.0177,0.16723 0,0 -0.06507,-0.0152 -0.06507,-0.0152 v 0 c 0.02273,-0.0654 0.01984,-0.0294 -0.0032,-0.10839 -0.286832,-0.33334 0.180991,0.20357 -0.188304,-0.19254 -0.11608,-0.12451 -0.192722,-0.24548 -0.293745,-0.38603 -0.07225,-0.10053 -0.09541,-0.32192 -0.217443,-0.30108 -0.466222,0.0796 -0.868923,0.37389 -1.303388,0.56083 0,0 2.193796,-1.82816 2.193796,-1.82816 z"
       inkscape:connector-curvature="0" />
    <path
       style="opacity:0.86400003;fill:#6d8d12;fill-opacity:1;fill-rule:nonzero;stroke:#020306;stroke-width:1;stroke-linecap:round;stroke-miterlimit:4;stroke-dasharray:none;stroke-dashoffset:0;stroke-opacity:1"
       id="path4541"
       d="m 58.455424,285.24993 c 0.236715,0.30392 0.217075,0.2536 0.389224,0.55768 0.01167,0.0206 0.08992,0.1654 0.09492,0.21542 0.004,0.0404 -0.0075,0.0811 -0.0067,0.12171 0.0011,0.0555 0.0084,0.11081 0.01254,0.16622 0.0055,0.0497 0.0061,0.1002 0.01659,0.14909 0.07694,0.35744 0.01138,-0.14347 0.07872,0.28445 0.0084,0.0536 0.0067,0.10843 0.01426,0.16217 0.0065,0.046 0.03859,0.18682 0.051,0.24251 0.0037,0.0194 0.01564,0.24915 -0.0024,0.24676 -0.118816,-0.0158 -0.07411,-0.26395 -0.07417,-0.28616 -2.38e-4,-0.10126 5.29e-4,-0.20251 7.94e-4,-0.30376 5.29e-4,-0.11114 0.0013,-0.22227 0.0019,-0.3334 5.29e-4,-0.10507 -0.01061,-0.21084 0.0013,-0.31522 0.01135,-0.0986 0.0458,-0.19316 0.06822,-0.28985 0.05767,-0.24873 0.125134,-0.49312 0.165536,-0.74514 0.01124,-0.0496 0.05142,-0.10106 0.03369,-0.14868 -0.161655,-0.4341 -1.1982,0.25006 -1.378386,-0.17668 -0.290484,-0.68795 0.374676,-1.04225 0.802849,-1.28479 0,0 1.350436,2.51619 1.350436,2.51619 v 0 c 0.397846,-0.23726 1.03452,-0.60547 0.702389,-1.2268 -0.195525,-0.36578 -0.829313,0.0426 -1.240483,0.097 -0.06403,0.008 -0.129183,0.0412 -0.171646,0.0899 -0.03248,0.0372 -0.02193,0.0963 -0.03288,0.14452 -0.04106,0.25355 -0.107763,0.49987 -0.166511,0.75001 -0.02154,0.0917 -0.05564,0.18107 -0.0664,0.27464 -0.01199,0.10441 -7.94e-4,0.2102 -0.0013,0.3153 -5.29e-4,0.11107 -0.0013,0.22214 -0.0019,0.33321 -2.64e-4,0.10098 -0.0011,0.20197 -7.94e-4,0.30295 1.35e-4,0.0684 0.01601,0.13828 0.0019,0.2052 -0.0066,0.0312 -0.02981,0.0667 -0.0609,0.074 -0.02003,0.005 0.0055,-0.0408 0.0071,-0.0613 0.0065,-0.0829 0.0034,-0.0741 -0.0037,-0.16328 -0.014,-0.0629 -0.04475,-0.19723 -0.05236,-0.25131 -0.0071,-0.0507 -0.005,-0.10251 -0.01286,-0.15313 -0.05407,-0.34913 -0.01016,0.0338 -0.07997,-0.29185 -0.01066,-0.0497 -0.01122,-0.10106 -0.01683,-0.15159 -0.0042,-0.0587 -0.01196,-0.11733 -0.01252,-0.17622 -2.64e-4,-0.032 0.01252,-0.0636 0.01,-0.0955 -0.0037,-0.0466 -0.08071,-0.18779 -0.08883,-0.20218 -0.167685,-0.29717 -0.147843,-0.24696 -0.379177,-0.54481 0,0 0.04725,-0.0472 0.04725,-0.0472 z"
       inkscape:connector-curvature="0" />
    <path
       style="opacity:0.86400003;fill:#6d8d12;fill-opacity:1;fill-rule:nonzero;stroke:#020306;stroke-width:1;stroke-linecap:round;stroke-miterlimit:4;stroke-dasharray:none;stroke-dashoffset:0;stroke-opacity:1"
       id="path4543"
       d="m 58.154744,288.55739 c 0.141179,0.21494 0.396745,0.31726 0.551243,0.51783 0.05912,0.0768 0.08374,0.18983 0.116354,0.27948 0.07503,0.19187 0.189841,0.36497 0.275931,0.55138 0.229132,0.49615 -0.06459,-0.0983 0.135985,0.30224 0.02114,0.0372 0.04685,0.0722 0.06339,0.11174 0.03455,0.0825 0.02648,0.13398 0.06633,0.21062 0.07712,0.14829 0.185531,0.27811 0.280858,0.4154 0.09773,0.14076 0.195255,0.28166 0.292881,0.42249 0.09766,0.14854 0.197456,0.2957 0.292981,0.44563 0.208703,0.32754 0.222416,0.41522 0.4777,0.67617 0.08517,0.0871 0.183538,0.16018 0.274103,0.24162 0.256299,0.23049 0.248618,0.22747 0.484573,0.45788 0.07405,-0.0418 0.170731,0.25481 0.194226,0.24696 0.0127,-0.004 0.01262,-0.0252 0.02413,-0.0321 0.04309,-0.0255 0.129826,-0.0438 0.176551,-0.0557 0.08911,-2e-5 0.148061,0.0729 0.229846,0.0924 0.01691,0.004 0.03466,0.004 0.05203,0.003 0.01918,-5.3e-4 0.06533,0.0106 0.05719,-0.007 -0.01595,-0.0341 -0.06097,-0.0443 -0.09145,-0.0664 -0.199866,-0.505 -0.185058,-1.04176 -0.136446,-1.57182 0.03125,-0.15674 -0.01,-0.31985 0.0041,-0.47674 0.01214,-0.13516 0.05445,-0.2676 0.114332,-0.38765 0.04311,-0.0851 0.03553,-0.31054 0.144015,-0.34472 0.02671,-0.008 0.056,-7.9e-4 0.08401,-0.001 0.09311,0.0326 0.02008,-0.002 0.111048,0.0754 0.03474,0.0294 0.08788,0.0525 0.119097,0.0847 0.07876,0.0814 0.101269,0.14416 0.154813,0.24589 0.09992,0.243 0.163298,0.49998 0.268372,0.7409 0.100446,0.2303 0.03736,0.0357 0.100722,0.25941 0.0348,0.11414 0.06892,0.23287 0.117271,0.34224 0.03518,0.0796 0.06227,0.093 0.07246,0.18424 0.02495,0.007 0.02665,0.004 0.04198,0.0411 0.0087,0.021 0.0064,0.0456 0.01595,0.0662 0.0199,0.0429 0.05224,-0.003 0.05515,0.0697 0.0011,0.0233 -0.01725,0.0434 -0.02588,0.0651 0,0 -0.04996,-0.0444 -0.04996,-0.0444 v 0 c 0.0064,0.005 0.02056,0.0224 0.01902,0.0145 -0.0037,-0.0186 -0.06004,-0.084 -0.06393,-0.0921 -0.0059,-0.0122 -5.29e-4,-0.0277 -0.005,-0.0405 -0.01024,-0.0289 -0.04621,-0.0448 -0.05399,-0.0744 -0.0019,-0.0716 -0.04019,-0.103 -0.06916,-0.16813 -0.04907,-0.1103 -0.08322,-0.23037 -0.118319,-0.34563 -0.05616,-0.20515 5.29e-4,-0.0252 -0.09851,-0.25283 -0.104003,-0.23882 -0.167698,-0.49317 -0.265433,-0.73447 -0.03977,-0.0767 -0.07387,-0.15924 -0.134966,-0.22285 -0.01109,-0.0115 -0.114443,-0.0805 -0.128596,-0.0932 -0.06885,-0.0616 0.004,-0.0241 -0.06617,-0.0542 -0.0083,-0.002 -0.05931,-0.0188 -0.07249,-5.3e-4 -0.05794,0.0809 -0.03827,0.22663 -0.09199,0.30983 -0.05611,0.10767 -0.09619,0.2332 -0.10709,0.35542 -0.01423,0.15956 0.0273,0.32535 -0.0044,0.48476 -0.04742,0.51661 -0.06351,1.03935 0.127997,1.5327 0.01352,0.0553 0.05021,0.10975 0.04052,0.16583 -0.004,0.0232 -0.0468,0.007 -0.07038,0.007 -0.09921,-5.3e-4 -0.172264,-0.0598 -0.259521,-0.0975 -0.0831,0.0207 -0.182095,0.0775 -0.269862,0.0639 -0.0461,-0.007 -0.08201,-0.24693 -0.188058,-0.24004 -0.239395,-0.23382 -0.221544,-0.22085 -0.482124,-0.45561 -0.09295,-0.0837 -0.193749,-0.15914 -0.281056,-0.24874 -0.258678,-0.26549 -0.272058,-0.35236 -0.482346,-0.68242 -0.09523,-0.14947 -0.194707,-0.29618 -0.29206,-0.44427 -0.09761,-0.1408 -0.195123,-0.28166 -0.292817,-0.42239 -0.02779,-0.04 -0.236099,-0.32824 -0.288915,-0.43104 -0.06295,-0.12251 -0.0058,-0.0678 -0.06156,-0.2002 -0.01707,-0.0405 -0.04335,-0.0765 -0.06503,-0.11481 -0.215062,-0.43077 0.09895,0.20642 -0.135459,-0.30121 -0.08731,-0.18908 -0.203888,-0.36461 -0.279487,-0.55945 -0.02777,-0.0764 -0.05046,-0.18953 -0.100807,-0.25507 -0.154159,-0.20072 -0.41026,-0.30283 -0.551243,-0.51783 0,0 0.04725,-0.0473 0.04725,-0.0473 z"
       inkscape:connector-curvature="0" />
    <path
       style="opacity:0.86400003;fill:#6d8d12;fill-opacity:1;fill-rule:nonzero;stroke:#020306;stroke-width:1;stroke-linecap:round;stroke-miterlimit:4;stroke-dasharray:none;stroke-dashoffset:0;stroke-opacity:1"
       id="path4545"
       d="m 63.669928,286.05485 c 0.307014,0.40934 0.303234,0.39141 0.585906,0.82024 0.06907,0.10478 0.143159,0.20698 0.201073,0.31832 0.0522,0.10037 0.0859,0.20932 0.127998,0.31432 0.160792,0.40103 0.100671,0.23288 0.222448,0.65051 0.0088,0.0223 0.239168,0.60248 0.251725,0.64246 0.06428,0.20466 0.04865,0.25999 0.08032,0.46435 0.07003,0.45187 -0.0013,-0.15454 0.05381,0.35696 0.03554,0.1578 0.06957,0.31804 0.07241,0.48053 5.29e-4,0.0247 -0.0019,0.0495 -0.0051,0.074 -0.0019,0.0153 -0.0131,0.03 -0.01003,0.045 0.0016,0.008 0.01442,0.008 0.02164,0.0122 0.0326,0.0402 0.119671,0.22452 -0.01019,0.21737 -0.03745,-0.002 -0.208542,-0.12679 -0.220755,-0.13517 -0.215215,-0.22128 -0.321106,-0.50452 -0.435046,-0.78378 -0.07709,-0.18894 -0.164492,-0.37223 -0.243226,-0.56031 -0.01585,-0.0933 -0.21617,-0.47031 -0.131583,-0.55523 0.01871,-0.0188 0.04803,-0.0224 0.07204,-0.0336 0.106646,0.002 0.123169,0.0181 0.20216,0.0787 0.111686,0.0858 0.126612,0.12729 0.19703,0.25504 0.06784,0.28285 0.102122,0.57146 0.19171,0.84847 0.03583,0.11727 0.04344,0.23339 0.03332,0.35452 -0.0024,0.0292 -0.01291,0.058 -0.01045,0.0871 0.0021,0.0254 0.04801,0.15343 0.05581,0.17603 0.04649,0.18156 0.0049,0.36664 0.003,0.55035 0.0026,0.0862 0.0013,0.0367 0.0036,0.14868 0,0 -0.0668,10e-4 -0.0668,10e-4 v 0 c -0.0024,-0.11234 -0.0011,-0.0621 -0.0036,-0.1508 0.0021,-0.17613 0.04116,-0.35352 5.29e-4,-0.52789 -0.01921,-0.0561 -0.05395,-0.14777 -0.05896,-0.20577 -0.0024,-0.0278 0.0076,-0.0552 0.01008,-0.0829 0.01,-0.11295 0.0033,-0.22074 -0.03022,-0.33025 -0.08739,-0.27325 -0.126056,-0.55682 -0.186725,-0.83686 -0.0349,-0.0644 -0.07006,-0.14524 -0.124917,-0.19873 -0.01707,-0.0166 -0.04098,-0.0247 -0.05942,-0.0398 -0.0601,-0.0493 -0.0517,-0.0524 -0.140967,-0.0622 -0.05,-0.0237 -0.04195,0.0418 -0.03553,0.0766 0.02698,0.14634 0.106447,0.27735 0.141443,0.42142 0.07882,0.18848 0.166577,0.37204 0.243674,0.56141 0.10868,0.26695 0.209187,0.53867 0.410781,0.75339 0.04005,0.0275 0.08084,0.054 0.120163,0.0825 0.01786,0.013 0.03634,0.0256 0.05123,0.0419 0.0069,0.007 0.0034,0.0322 0.01249,0.0278 0.01683,-0.008 -0.0289,-0.12493 -0.04576,-0.14142 -0.04863,-0.0999 -0.01654,-0.0625 -0.01818,-0.16467 -0.0026,-0.16163 -0.03746,-0.32084 -0.07218,-0.47788 -0.05111,-0.48182 0.01543,0.0906 -0.05372,-0.35611 -0.02989,-0.19308 -0.0158,-0.25565 -0.07628,-0.44813 -0.01127,-0.0359 -0.248002,-0.6338 -0.253582,-0.64794 -0.121894,-0.41934 -0.05825,-0.23819 -0.220216,-0.64408 -0.04046,-0.10141 -0.07221,-0.20687 -0.122568,-0.30374 -0.05754,-0.11069 -0.131185,-0.21228 -0.199832,-0.31644 -0.281405,-0.42702 -0.277307,-0.40866 -0.583398,-0.81679 0,0 0.05275,-0.041 0.05275,-0.041 z"
       inkscape:connector-curvature="0" />
  </g>
  <g
     inkscape:groupmode="layer"
     id="layer4"
     inkscape:label="Layer 4"
     sodipodi:insensitive="true">
    <path
       style="opacity:0.197;fill:#cd853f;stroke:none;stroke-width:0.26458332px;stroke-linecap:butt;stroke-linejoin:miter;stroke-opacity:1"
       d="m 2.2206101,11.793528 10.2053569,2.315104 4.677455,0.661458 c 0,0 4.866444,2.315104 5.055432,2.645834 0.188988,0.330729 5.764136,5.055431 5.764136,5.055431 L 34.632069,24.9282 38.317336,33.290922 38.0811,34.802828 37.655878,33.149182 34.065104,25.40067 27.63951,23.369049 20.883184,18.030135 15.875,16.187501 1.6536458,13.919644 Z"
       id="path4604"
       inkscape:connector-curvature="0" />
    <path
       style="opacity:0.197;fill:#cd853f;fill-opacity:1;stroke:none;stroke-width:0.26458332px;stroke-linecap:butt;stroke-linejoin:miter;stroke-opacity:1"
       d="M 16.158482,14.864584 22.962053,9.4784234 31.135788,7.3050605 42.333333,10.754093 44.223214,12.265998 41.860864,11.27381 31.41927,7.7302838 23.292783,9.998141 17.481398,15.431548 Z"
       id="path4606"
       inkscape:connector-curvature="0"
       sodipodi:nodetypes="cccccccccc" />
    <path
       style="opacity:0.197;fill:#cd853f;fill-opacity:1;stroke:none;stroke-width:0.26458332px;stroke-linecap:butt;stroke-linejoin:miter;stroke-opacity:1"
       d="M 30.899552,7.4468015 34.30134,5.0372033 35.057291,4.1867568 34.254093,5.2734384 31.324777,7.3995546 Z"
       id="path4608"
       inkscape:connector-curvature="0" />
    <path
       style="opacity:0.197;fill:#cd853f;fill-opacity:1;stroke:none;stroke-width:0.26458332px;stroke-linecap:butt;stroke-linejoin:miter;stroke-opacity:1"
       d="m 27.474145,22.967449 0.04725,4.937313 0.826823,2.527716 -0.59059,-2.456844 -0.04725,-5.008185 z"
       id="path4610"
       inkscape:connector-curvature="0" />
  </g>
  <g
     inkscape:groupmode="layer"
     id="layer6"
     inkscape:label="Layer 6">
    <path
       style="opacity:0.525;fill:#90ee90;fill-opacity:1;stroke:none;stroke-width:0.26458332px;stroke-linecap:butt;stroke-linejoin:miter;stroke-opacity:1"
       d="m 33.788234,5.6636781 -0.733869,-1.0344448 -0.03626,-1.3583298 -0.197457,-0.47871 1.000053,0.9788578 z"
       id="path4754"
       inkscape:connector-curvature="0" />
    <path
       style="fill:#90ee90;fill-opacity:1;stroke:none;stroke-width:0.26458332px;stroke-linecap:butt;stroke-linejoin:miter;stroke-opacity:1;opacity:0.81"
       d="M 34.360839,5.0545102 V 3.4341887 l 1.11919,-1.3697563 0.551244,-0.1670434 -0.250566,1.069078 -0.968851,1.5200955 z"
       id="path4756"
       inkscape:connector-curvature="0" />
    <path
       style="fill:#90ee90;fill-opacity:1;stroke:none;stroke-width:0.26458332px;stroke-linecap:butt;stroke-linejoin:miter;stroke-opacity:1;opacity:0.525"
       d="m 33.946986,5.3679325 1.003998,-0.3543528 0.980377,0.1653646 0.755951,-0.2362351 -0.992187,0.6732702 -1.157552,0.082682 z"
       id="path4758"
       inkscape:connector-curvature="0" />
    <path
       style="fill:#90ee90;fill-opacity:1;stroke:none;stroke-width:0.26458332px;stroke-linecap:butt;stroke-linejoin:miter;stroke-opacity:1;opacity:0.237"
       d="m 37.325149,9.4075529 3.449031,-0.283482 4.252233,1.3229171 1.866257,0.09449 -2.244233,0.826823 -3.897879,-0.755953 z"
       id="path4760"
       inkscape:connector-curvature="0" />
    <path
       style="fill:#90ee90;fill-opacity:1;stroke:none;stroke-width:0.26458332px;stroke-linecap:butt;stroke-linejoin:miter;stroke-opacity:1;opacity:0.525"
       d="m 33.840682,5.5332971 -0.307108,0.578776 0.248047,0.5905878 h 0.34254 l 0.01183,-0.6732701 z"
       id="path4762"
       inkscape:connector-curvature="0" />
    <path
       style="fill:#90ee90;fill-opacity:1;stroke:none;stroke-width:0.26458332px;stroke-linecap:butt;stroke-linejoin:miter;stroke-opacity:1;opacity:0.525"
       d="M 33.542324,5.6391624 32.423134,5.0545102 31.136899,5.4387101 30.86963,5.7895013 31.688143,5.6558666 32.840742,5.8563189 Z"
       id="path4764"
       inkscape:connector-curvature="0" />
    <path
       style="fill:#90ee90;fill-opacity:1;stroke:none;stroke-width:0.26458332px;stroke-linecap:butt;stroke-linejoin:miter;stroke-opacity:1;opacity:0.525"
       d="m 28.313866,21.374656 1.703843,0.801808 0.451017,0.484426 0.03341,-1.1526 -0.952148,-1.169304 -1.469983,0.08352 z"
       id="path4766"
       inkscape:connector-curvature="0" />
    <path
       style="fill:#90ee90;stroke:none;stroke-width:0.26458332px;stroke-linecap:butt;stroke-linejoin:miter;stroke-opacity:1;fill-opacity:1;opacity:0.525"
       d="m 22.276972,20.770462 -0.944941,1.511905 v 0.897693 l 1.535528,-0.708705 0.850447,-0.87407 0.259858,-0.803199 z"
       id="path4768"
       inkscape:connector-curvature="0" />
    <path
       style="fill:#90ee90;stroke:none;stroke-width:0.26458332px;stroke-linecap:butt;stroke-linejoin:miter;stroke-opacity:1;fill-opacity:1;opacity:0.525"
       d="m 22.678571,17.085194 -1.110305,-1.039434 1.228423,0.141741 1.157552,0.637835 z"
       id="path4770"
       inkscape:connector-curvature="0" />
    <path
       style="fill:#90ee90;stroke:none;stroke-width:0.26458332px;stroke-linecap:butt;stroke-linejoin:miter;stroke-opacity:1;fill-opacity:1;opacity:0.525"
       d="m 38.152726,34.253707 0.634764,2.939962 2.605879,0.501132 -1.369759,-1.403165 -1.069078,-1.837478 z"
       id="path4772"
       inkscape:connector-curvature="0" />
    <path
       style="fill:#90ee90;stroke:none;stroke-width:0.26458332px;stroke-linecap:butt;stroke-linejoin:miter;stroke-opacity:1;fill-opacity:1;opacity:0.878"
       d="m 38.219541,33.852802 3.441097,1.00226 2.639284,-1.135896 -1.937702,-0.300677 -1.937705,-0.701583 -2.305198,1.302938 z"
       id="path4774"
       inkscape:connector-curvature="0" />
    <path
       style="fill:#90ee90;stroke:none;stroke-width:0.26458332px;stroke-linecap:butt;stroke-linejoin:miter;stroke-opacity:1;fill-opacity:1;opacity:0.776"
       d="m 37.985681,33.652348 -2.472243,-0.501128 -3.040192,1.536798 0.233863,1.670436 0.300677,-1.069078 2.472243,-0.03341 z"
       id="path4776"
       inkscape:connector-curvature="0" />
    <path
       style="fill:#90ee90;stroke:none;stroke-width:0.26458332px;stroke-linecap:butt;stroke-linejoin:miter;stroke-opacity:1;fill-opacity:1;opacity:0.773"
       d="m 28.297161,29.910577 0.200453,-3.474505 1.837476,-1.236121 1.469983,-0.03341 -1.23612,1.503392 -0.668174,1.904296 z"
       id="path4778"
       inkscape:connector-curvature="0" />
    <path
       style="fill:#90ee90;stroke:none;stroke-width:0.26458332px;stroke-linecap:butt;stroke-linejoin:miter;stroke-opacity:1;fill-opacity:1;opacity:0.525"
       d="m 28.442708,29.747397 2.196986,-0.661458 1.842635,0.803198 -1.582777,0.425223 z"
       id="path4780"
       inkscape:connector-curvature="0" />
    <path
       style="fill:#90ee90;stroke:none;stroke-width:0.26458332px;stroke-linecap:butt;stroke-linejoin:miter;stroke-opacity:1;fill-opacity:1;opacity:0.8"
       d="m 27.875743,29.511162 -3.425408,0.803198 -0.992188,2.527718 2.244234,-1.228423 z"
       id="path4782"
       inkscape:connector-curvature="0" />
    <path
       style="fill:#90ee90;stroke:none;stroke-width:0.26458332px;stroke-linecap:butt;stroke-linejoin:miter;stroke-opacity:1;fill-opacity:1;opacity:0.525"
       d="m 27.946614,29.416668 -0.968563,-1.511906 -1.724517,0.496094 0.661458,1.063059 z"
       id="path4784"
       inkscape:connector-curvature="0" />
    <path
       style="fill:#90ee90;stroke:none;stroke-width:0.26458332px;stroke-linecap:butt;stroke-linejoin:miter;stroke-opacity:1;fill-opacity:1;opacity:0.525"
       d="m 23.185631,9.4644574 0.06682,-1.7038431 1.069078,-1.302939 -0.03341,1.6036171 z"
       id="path4786"
       inkscape:connector-curvature="0" />
    <path
       style="fill:#90ee90;stroke:none;stroke-width:0.26458332px;stroke-linecap:butt;stroke-linejoin:miter;stroke-opacity:1;fill-opacity:1;opacity:0.736"
       d="m 23.162853,9.4311765 2.267857,-0.059059 2.090682,1.0748705 0.05906,0.933128 -0.354351,-0.791387 -1.689082,0.47247 z"
       id="path4788"
       inkscape:connector-curvature="0" />
  </g>
  <g
     inkscape:groupmode="layer"
     id="layer5"
     inkscape:label="Layer 5"
     style="display:inline">
    <path
       style="opacity:0.30500004;fill:#ff1800;fill-opacity:1;stroke:none;stroke-width:0.20718038px;stroke-linecap:butt;stroke-linejoin:miter;stroke-opacity:1"
       d="m 25.507306,19.417167 -1.463777,0.920113 -0.464125,1.571859 1.035355,1.265156 1.606586,-1.495184 -0.0714,-1.380169 z"
       id="path4613"
       inkscape:connector-curvature="0" />
    <path
       style="opacity:0.546;fill:#ff2d00;fill-opacity:1;stroke:none;stroke-width:0.20718038px;stroke-linecap:butt;stroke-linejoin:miter;stroke-opacity:1"
       d="m 25.596561,19.570519 0.160659,2.491973 0.963952,1.284324 1.463776,-0.862606 0.303467,-1.533522 L 27.470912,19.9539 26.32845,19.263814 Z"
       id="path4615"
       inkscape:connector-curvature="0" />
    <path
       style="opacity:0.563;fill:#ff3d00;fill-opacity:1;stroke:none;stroke-width:0.20718038px;stroke-linecap:butt;stroke-linejoin:miter;stroke-opacity:1"
       d="m 25.400201,19.685534 -1.481629,1.361 -1.553032,-0.325874 -0.571231,-1.226817 0.606932,-0.536733 1.213865,-0.38338 1.249566,0.172522 z"
       id="path4617"
       inkscape:connector-curvature="0" />
    <path
       style="opacity:0.773;fill:#ff3400;fill-opacity:1;stroke:none;stroke-width:0.20718038px;stroke-linecap:butt;stroke-linejoin:miter;stroke-opacity:1"
       d="m 26.13209,19.647195 2.231368,0.900944 1.606588,-0.268367 0.08925,-1.207648 -0.696186,-0.824267 -1.285269,-0.345043 -0.981801,0.421719 -0.910399,0.651747 z"
       id="path4619"
       inkscape:connector-curvature="0" />
    <path
       style="opacity:0.383;fill:#ff3900;fill-opacity:1;stroke:none;stroke-width:0.20718038px;stroke-linecap:butt;stroke-linejoin:miter;stroke-opacity:1"
       d="m 24.971778,19.1488 -1.892201,-0.690084 -0.481976,-1.073465 0.535529,-0.613409 1.463778,-0.115014 0.910398,1.495183 -0.05355,0.862607 z"
       id="path4621"
       inkscape:connector-curvature="0" />
    <path
       style="opacity:0.549;fill:#ff0029;fill-opacity:1;stroke:none;stroke-width:0.20718038px;stroke-linecap:butt;stroke-linejoin:miter;stroke-opacity:1"
       d="m 25.275244,19.417167 -0.19636,-2.491973 0.74974,-0.479225 1.017505,0.364211 0.624783,1.015958 -0.874696,1.456846 -1.10676,0.325873 z"
       id="path4623"
       inkscape:connector-curvature="0" />
    <path
       style="opacity:0.30500004;fill:#ffff00;fill-opacity:1;fill-rule:nonzero;stroke:none;stroke-width:1;stroke-linecap:round;stroke-miterlimit:4;stroke-dasharray:none;stroke-dashoffset:0;stroke-opacity:1"
       id="path4649"
       d="m 24.843901,18.809477 c 0.07257,0.02476 0.124849,0.05351 0.182025,0.104828 0.0275,0.02468 0.05083,0.05484 0.07559,0.08222 0.0062,0.0064 0.01385,0.01173 0.01873,0.01923 0.0058,0.0089 0.0086,0.01946 0.01283,0.02919 0.0088,0.01314 0.01743,0.02638 0.02635,0.03942 0.0039,0.0057 0.02846,0.04193 0.02068,0.02754 0.03799,0.03228 0.03905,0.05894 0.06422,0.09178 1.62e-4,-0.01459 0.04194,0.106995 0.02349,0.08437 -0.0146,-0.01791 -0.0054,-0.04942 -0.0216,-0.06586 -0.02509,-0.0254 -0.06898,-0.02582 -0.09405,-0.05123 -0.01306,-0.01324 0.03981,7.2e-5 0.05465,0.01129 0.03214,0.0243 0.05336,0.06038 0.08004,0.09057 0,0 -0.245704,0.07767 -0.245704,0.07767 v 0 c 0.02481,0.02425 0.04584,0.05308 0.07442,0.07276 0.01082,0.0075 0.05028,0.01223 0.03906,0.0054 -0.168454,-0.102663 -0.07936,0.01452 -0.144211,-0.128339 -0.0055,-0.01212 0.0091,0.0394 0.01385,0.03746 -0.04252,-0.07252 0.03475,0.05007 -0.02588,-0.04162 -0.0025,-0.0038 -0.01013,-0.01464 -0.0066,-0.01184 0.0086,0.0068 0.01667,0.01472 0.02216,0.02417 0.0038,0.0066 -0.01134,-0.0102 -0.01701,-0.0153 -0.0065,-0.007 -0.01323,-0.01376 -0.01941,-0.02103 -0.0078,-0.0091 -0.01296,-0.02038 -0.02119,-0.02913 -0.0096,-0.01018 -0.0398,-0.02136 -0.04498,-0.02514 -0.0099,-0.0073 -0.01704,-0.01769 -0.02556,-0.02654 -0.05219,-0.05784 0.0041,0.0049 -0.03932,-0.04432 -0.005,-0.0056 -0.01051,-0.01071 -0.01502,-0.01668 -0.0017,-0.0023 -0.0013,-0.0061 -0.0036,-0.0079 -0.02595,-0.02031 -0.05562,-0.02858 -0.08609,-0.04079 0,0 0.102052,-0.272138 0.102052,-0.272138 z"
       inkscape:connector-curvature="0" />
    <path
       style="opacity:0.30500004;fill:#ffff00;fill-opacity:1;fill-rule:nonzero;stroke:none;stroke-width:1;stroke-linecap:round;stroke-miterlimit:4;stroke-dasharray:none;stroke-dashoffset:0;stroke-opacity:1"
       id="path4651"
       d="m 25.168964,19.419477 c 0.0423,0.02811 0.07876,0.06367 0.120394,0.09265 0.0097,0.0068 0.02074,0.0117 0.03005,0.01904 0.0073,0.0057 0.01177,0.01426 0.01807,0.02102 0.02696,0.02247 0.04346,0.0468 0.06352,0.07739 0.0027,0.0041 0.004,0.0091 0.0066,0.01331 0.0019,0.0032 -0.0031,-0.0067 -0.0046,-0.01011 -0.0099,-0.02012 0.02116,0.0201 0.02565,0.0334 -0.0084,-0.01024 -0.01675,-0.02049 -0.02512,-0.03074 -0.0028,1.01e-4 -0.0093,-0.0024 -0.0085,2.91e-4 0.0029,0.0094 0.01013,0.01678 0.0161,0.02453 0.01299,0.01686 0.02714,0.0328 0.0407,0.0492 -0.01159,-0.01742 -0.0063,-0.01079 -0.01476,-0.02072 0,0 -0.159167,0.202655 -0.159167,0.202655 v 0 c -0.03306,-0.02842 -0.01684,-0.01202 -0.04758,-0.05024 0.0089,0.0085 0.02044,0.01501 0.0267,0.02565 0.0017,0.0029 -0.0041,0.0073 -0.0075,0.0069 -0.03187,-0.0041 -0.04789,-0.03298 -0.06771,-0.0541 -0.0042,-0.0044 0.01646,0.01783 0.01244,0.01329 -0.0083,-0.0094 -0.01685,-0.01852 -0.02528,-0.02778 -0.0074,-0.01131 -0.01506,-0.02242 -0.02214,-0.03392 -0.0019,-0.0031 -0.0075,-0.01252 -0.0049,-0.01 0.0091,0.0088 0.01716,0.01861 0.02444,0.02892 0.0031,0.0045 -0.008,-0.0074 -0.01192,-0.01117 -0.02066,-0.01947 -0.01172,-0.01082 -0.03353,-0.03301 -0.0026,-0.003 -0.03023,-0.03368 -0.03065,-0.03656 -0.0035,-0.02378 0.0364,0.0144 0.002,-0.02337 -0.0089,-0.0098 -0.07021,-0.05477 -0.07303,-0.05689 0,0 0.149778,-0.20969 0.149778,-0.20969 z"
       inkscape:connector-curvature="0" />
    <path
       style="opacity:0.30500004;fill:#ffff00;fill-opacity:1;fill-rule:nonzero;stroke:none;stroke-width:1;stroke-linecap:round;stroke-miterlimit:4;stroke-dasharray:none;stroke-dashoffset:0;stroke-opacity:1"
       id="path4653"
       d="m 25.806676,19.708822 c 0.01271,0.05133 0.02339,0.102898 0.03314,0.154821 0.0017,0.009 0.0075,0.03253 0.0085,0.04219 0.0013,0.01329 0.0016,0.02668 0.0024,0.04002 -0.0051,-0.04143 -0.01001,-0.05132 -0.0022,-0.03305 0,0 -0.268559,0.111128 -0.268559,0.111128 v 0 c -0.01432,-0.03509 -0.0051,-0.0099 -0.0199,-0.07808 7.93e-4,0.004 5.29e-4,0.01561 0.0024,0.01197 0.0019,-0.0037 -0.0014,-0.0082 -0.0022,-0.0123 -0.0023,-0.01139 -0.0049,-0.02269 -0.007,-0.0341 -0.0076,-0.04115 -0.01686,-0.08186 -0.02592,-0.122756 0,0 0.279461,-0.07985 0.279461,-0.07985 z"
       inkscape:connector-curvature="0" />
    <path
       style="opacity:0.30500004;fill:#ffff00;fill-opacity:1;fill-rule:nonzero;stroke:none;stroke-width:1;stroke-linecap:round;stroke-miterlimit:4;stroke-dasharray:none;stroke-dashoffset:0;stroke-opacity:1"
       id="path4655"
       d="m 26.01079,19.468843 c 0.03483,0.04767 0.06447,0.09881 0.09776,0.147507 0.009,0.01317 0.02012,0.02488 0.02846,0.03848 0.02553,0.04164 0.04156,0.08503 0.05657,0.131007 0.0028,0.0078 0.0049,0.01594 0.0083,0.02355 6.61e-4,0.0015 -0.0011,-0.006 2.5e-5,-0.0048 0.0032,0.0033 0.0055,0.0076 0.0069,0.01203 0.0066,0.02014 0.01143,0.04083 0.01715,0.06124 0,0 -0.256929,0.01976 -0.256929,0.01976 v 0 c 0.0088,0.02582 0.02587,0.06604 0.01113,0.03821 -0.0072,-0.01362 -0.01509,-0.02693 -0.02138,-0.041 -0.0045,-0.01002 -0.0072,-0.02072 -0.01085,-0.03108 -0.01443,-0.0481 0.0023,0.0058 -0.01483,-0.04315 -0.0015,-0.0044 -0.0014,-0.0094 -0.0039,-0.01336 -0.0111,-0.01743 -0.02483,-0.03306 -0.0365,-0.0501 -0.0293,-0.04278 -0.05559,-0.08757 -0.08532,-0.130068 0,0 0.203406,-0.158205 0.203406,-0.158205 z"
       inkscape:connector-curvature="0" />
    <path
       style="opacity:0.30500004;fill:#ffff00;fill-opacity:1;fill-rule:nonzero;stroke:none;stroke-width:1;stroke-linecap:round;stroke-miterlimit:4;stroke-dasharray:none;stroke-dashoffset:0;stroke-opacity:1"
       id="path4657"
       d="m 26.405316,19.168185 c 0.01625,0.03392 0.04741,0.05889 0.06493,0.09212 0.0095,0.01807 0.0172,0.03714 0.02376,0.05648 0.0045,0.01321 0.009,0.02686 0.0093,0.04081 5.29e-4,0.02372 0.0037,0.09192 -0.0071,0.07081 -0.01302,-0.02541 -2.65e-4,-0.0571 -5.29e-4,-0.08564 0.0044,0.01054 0.0087,0.0211 0.01312,0.03163 0.0067,0.0159 0.01519,0.03103 0.02109,0.04723 0.0058,0.01601 0.01003,0.03257 0.0154,0.04875 0.0024,0.0072 0.0019,0.0075 0.0035,0.0044 0,0 -0.256798,0.136118 -0.256798,0.136118 v 0 c -0.01278,-0.02632 -0.01993,-0.03747 -0.02731,-0.06477 -2.19e-4,-8.2e-4 0.002,-0.001 0.0017,-0.0018 -0.0099,-0.02573 -0.02465,-0.04971 -0.03296,-0.07617 -0.0056,-0.03987 -0.0067,-0.08062 -0.01675,-0.119602 -0.0042,-0.01619 -0.0024,0.03347 -0.0012,0.05014 0.0014,0.01885 0.04293,0.07905 -0.01567,-0.01115 -0.01076,-0.01656 -0.02071,-0.03362 -0.03107,-0.05043 0,0 0.236507,-0.168933 0.236507,-0.168933 z"
       inkscape:connector-curvature="0" />
    <path
       style="opacity:0.30500004;fill:#ffff00;fill-opacity:1;fill-rule:nonzero;stroke:none;stroke-width:1;stroke-linecap:round;stroke-miterlimit:4;stroke-dasharray:none;stroke-dashoffset:0;stroke-opacity:1"
       id="path4659"
       d="m 26.280071,19.016416 c 0,0.0689 0,0.137804 0,0.206706 0,0.03445 0.0028,0.06896 -0.01951,0.100438 -0.01929,0.02722 -0.0506,0.04349 -0.07591,0.06523 -0.04549,0.01308 -0.02973,0.0105 0.03855,-0.02842 0,0 -0.197109,-0.165986 -0.197109,-0.165986 v 0 c 0.07475,-0.05005 0.100314,-0.06033 0.06808,-0.04687 -0.174191,0.165248 -0.0072,-0.01755 -0.07179,0.106614 -0.0048,0.0092 0,-0.02067 0,-0.03101 0,-0.0689 0,-0.137804 0,-0.206706 0,0 0.257688,0 0.257688,0 z"
       inkscape:connector-curvature="0" />
    <path
       style="opacity:0.30500004;fill:#ffff00;fill-opacity:1;fill-rule:nonzero;stroke:none;stroke-width:1;stroke-linecap:round;stroke-miterlimit:4;stroke-dasharray:none;stroke-dashoffset:0;stroke-opacity:1"
       id="path4661"
       d="m 25.70926,18.872955 c 0.01064,0.04765 0.01771,0.09727 0.03432,0.1435 3.97e-4,0.0011 0.0021,9.26e-4 0.0032,0.0014 0.0034,0.0082 0.0084,0.01588 0.01029,0.02453 0.0046,0.02059 0.0061,0.04174 0.0092,0.06262 -0.01094,0.130514 -0.0083,-0.01907 2.57e-4,0.01546 0.0016,0.0066 0.0029,0.01334 0.0044,0.02001 0,0 -0.25216,0.05309 -0.25216,0.05309 v 0 c -0.0024,-0.01222 -0.0073,-0.02398 -0.0084,-0.03637 -0.0021,-0.02392 -0.0014,-0.09962 -0.0017,-0.05219 0.0031,0.01103 0.0062,0.02205 0.0092,0.03309 4.49e-4,0.0017 -8.21e-4,-0.0034 -0.0015,-0.005 -0.0066,-0.01536 -0.01471,-0.03013 -0.02046,-0.04585 -0.01783,-0.0488 -0.02551,-0.101298 -0.03655,-0.151794 0,0 0.249994,-0.0625 0.249994,-0.0625 z"
       inkscape:connector-curvature="0" />
    <path
       style="opacity:0.30500004;fill:#ffff00;fill-opacity:1;fill-rule:nonzero;stroke:none;stroke-width:1;stroke-linecap:round;stroke-miterlimit:4;stroke-dasharray:none;stroke-dashoffset:0;stroke-opacity:1"
       id="path4663"
       d="m 25.454568,18.79412 c 0.01875,0.0468 0.0316,0.07357 0.04234,0.124343 0.0043,0.02046 0.0052,0.04151 0.0078,0.06226 0,0 -0.289639,0.02414 -0.289639,0.02414 v 0 c 0.0073,-0.03394 -0.02548,-0.08016 -0.03259,-0.10869 0,0 0.272138,-0.102051 0.272138,-0.102051 z"
       inkscape:connector-curvature="0" />
    <path
       style="opacity:0.30500004;fill:#ffff00;fill-opacity:1;fill-rule:nonzero;stroke:none;stroke-width:1;stroke-linecap:round;stroke-miterlimit:4;stroke-dasharray:none;stroke-dashoffset:0;stroke-opacity:1"
       id="path4673"
       d="m 25.230144,19.66819 c 0.02601,0.0516 0.03656,0.1084 0.05216,0.163427 7.14e-4,0.0025 0.0034,0.0096 0.0033,0.007 -0.0017,-0.02719 -0.0085,0.0021 -0.01047,0.0073 0.0059,0.01149 0.01359,0.02223 0.01769,0.03448 0.0059,0.01751 0.01056,0.03568 0.01196,0.0541 0.0012,0.0159 0.0024,0.0622 -0.0042,0.04767 -0.01267,-0.02802 -0.0093,-0.06082 -0.01537,-0.09098 -4.77e-4,-0.0024 -0.0054,-0.0082 -0.004,-0.0061 0.0067,0.01035 0.01337,0.02067 0.02006,0.03101 -0.003,-0.005 -0.01223,-0.01027 -0.009,-0.01512 0.003,-0.0044 0.0087,0.0061 0.0125,0.0099 0.0118,0.01173 0.02241,0.0246 0.0341,0.03643 0.0113,0.01144 0.0252,0.02112 0.03753,0.03142 0.04676,0.06722 0.05181,0.07693 0.02053,0.02563 0,0 -0.191254,0.172699 -0.191254,0.172699 v 0 c -0.03547,-0.05313 -0.03617,-0.05138 0.0056,-4.76e-4 -0.02277,-0.019 -0.04558,-0.03767 -0.06607,-0.05925 -0.0022,-0.0024 -0.0028,-0.006 -0.0051,-0.0082 -0.06561,-0.06357 0.01689,0.02813 -0.06096,-0.06227 0.01037,0.0066 -0.0064,-0.0036 -0.0096,-0.01459 -0.0096,-0.03292 -0.01223,-0.0676 -0.02164,-0.100577 -0.0023,-0.0082 -0.0013,0.01715 2.12e-4,0.02552 0.0018,0.01003 0.0058,0.01958 0.0097,0.029 8.46e-4,0.002 0.0029,0.0033 0.0044,0.0049 -0.0097,-0.0047 -0.0218,-0.0062 -0.02911,-0.01413 -0.01033,-0.01123 -0.01511,-0.02659 -0.02123,-0.04058 -0.02342,-0.05357 -0.02213,-0.11543 -0.05384,-0.166169 0,0 0.272139,-0.102051 0.272139,-0.102051 z"
       inkscape:connector-curvature="0" />
    <path
       style="opacity:0.30500004;fill:#ffff00;fill-opacity:1;fill-rule:nonzero;stroke:none;stroke-width:1;stroke-linecap:round;stroke-miterlimit:4;stroke-dasharray:none;stroke-dashoffset:0;stroke-opacity:1"
       id="path4675"
       d="m 25.70526,19.790819 c 0.04101,0.0013 0.08158,0.0083 0.122495,0.01063 0.06597,0.0038 0.0316,-0.02139 0.138995,0.03184 0.01515,0.0075 0.02343,0.02436 0.03514,0.03655 -0.0014,-0.0015 -0.0055,-0.0059 -0.0042,-0.0043 0.05343,0.06316 -0.03326,-0.04256 0.02807,0.03853 0.03848,0.05087 -0.0033,-0.02756 0.06067,0.07206 0.0029,0.0045 6.61e-4,0.01065 0.001,0.01598 0.0028,0.01205 0.01285,0.04768 0.0084,0.03615 -0.03337,-0.08614 0.0031,-0.08659 -0.112722,-0.102635 -0.01912,-0.0026 -0.0391,0.01569 -0.0572,0.009 -0.0096,-0.0035 0.01486,-0.01419 0.02095,-0.0224 0.0063,-0.0085 0.01069,-0.01833 0.01603,-0.02749 0.01444,-0.03119 0.01462,-0.02982 0.02724,-0.06617 0.005,-0.01438 0.0053,-0.03095 0.01398,-0.04348 0.02598,-0.03771 0.06773,-0.06163 0.104679,-0.08668 0.03887,0.0083 0.07184,-0.01235 0.108489,-0.01619 0.02248,-0.0024 0.04183,-3.71e-4 0.0638,0.0017 0.03506,-5.56e-4 0.03417,-0.0011 0.09246,0.0394 0.01499,0.01042 0.02159,0.02945 0.03221,0.0443 0.002,0.0027 0.0077,0.011 0.0055,0.0084 -0.04682,-0.05539 0.0033,-0.02111 -0.125144,-0.04948 0,0 0.08181,0.244358 0.08181,0.244358 v 0 c -0.04359,-0.0047 -0.08916,-4.23e-4 -0.130775,-0.01424 -0.01974,-0.0066 -0.03055,-0.02832 -0.04431,-0.04391 -0.0053,-0.006 -0.02063,-0.02143 -0.01264,-0.02055 0.0096,0.0011 0.01095,0.01688 0.0195,0.0213 0.05561,0.02874 0.108639,0.02949 0.056,0.02682 -0.0047,-4.76e-4 -0.0095,-7.67e-4 -0.01415,-0.0014 -5.82e-4,-8.2e-5 0.0011,-2.51e-4 0.0017,-3.18e-4 0.0048,-6.35e-4 0.0096,-9.52e-4 0.01441,-0.0019 0.0012,-2.29e-4 0.0047,-0.0018 0.0034,-0.0015 -0.03087,0.0076 -0.01895,0.005 0.01334,0.0076 -0.0067,0.0045 -0.01331,0.0092 -0.02013,0.01364 -0.0039,0.0025 -0.0086,0.01015 -0.01194,0.007 -0.0034,-0.0031 0.01061,-0.01216 0.006,-0.01251 -0.0326,-0.0025 -0.06583,0.07499 -0.07228,0.08844 -0.01923,0.02672 -0.05688,0.08669 -0.08917,0.106362 -0.03395,0.02069 -0.06873,0.04629 -0.108325,0.04992 -0.122252,0.01123 -0.111824,-0.03292 -0.145573,-0.114724 -0.0018,-0.0044 0.0031,0.009 0.0047,0.01345 -0.02311,-0.01946 0.01151,0.0096 0.02734,0.02492 0.0022,0.0021 -0.0049,-0.0039 -0.0077,-0.005 -0.0059,-0.0021 -0.0125,-0.002 -0.01821,-0.0045 -0.0254,-0.01131 -0.04315,-0.03042 -0.0642,-0.04843 0.05084,0.04202 -0.02673,-0.01795 0.11078,0.03854 0.0092,0.0038 -0.01984,0.0017 -0.02979,0.002 -0.06003,0.0015 -0.12038,-6.35e-4 -0.180056,-0.0073 0,0 0.02938,-0.293829 0.02938,-0.293829 z"
       inkscape:connector-curvature="0" />
    <path
       style="opacity:0.30500004;fill:#ffff00;fill-opacity:1;fill-rule:nonzero;stroke:none;stroke-width:1;stroke-linecap:round;stroke-miterlimit:4;stroke-dasharray:none;stroke-dashoffset:0;stroke-opacity:1"
       id="path4677"
       d="m 25.827572,19.049277 c -0.06225,0.100407 -0.0085,0.02022 -0.05474,0.07872 -0.0016,0.002 -0.0052,0.0085 -0.0035,0.0067 0.0031,-0.0032 0.0095,-0.01488 0.0075,-0.01093 -0.0035,0.0071 -0.0081,0.01353 -0.01216,0.0203 0,0 -0.245699,-0.163799 -0.245699,-0.163799 v 0 c -0.0021,0.0038 -0.0085,0.01519 -0.0063,0.01144 0.02171,-0.03703 0.0516,-0.0851 0.08651,-0.11005 0.01812,-0.01295 0.04041,-0.0187 0.06062,-0.02805 0,0 0.167701,0.195652 0.167701,0.195652 z"
       inkscape:connector-curvature="0" />
    <path
       style="opacity:0.30500004;fill:#ffff00;fill-opacity:1;fill-rule:nonzero;stroke:none;stroke-width:1;stroke-linecap:round;stroke-miterlimit:4;stroke-dasharray:none;stroke-dashoffset:0;stroke-opacity:1"
       id="path4679"
       d="m 25.016396,19.174462 c -0.0081,0.02345 -0.01876,0.04616 -0.02419,0.07035 -0.0055,0.02451 -0.01112,0.105161 -0.01503,0.135821 -0.0056,0.04396 -0.01216,0.08815 -0.02012,0.131743 -0.0039,0.05574 -0.02035,0.110995 -0.01306,0.167046 -0.0197,-0.06229 -0.01166,-0.07478 -0.09383,-0.103348 -0.01747,-0.0061 -0.07304,1.63e-4 -0.05523,0.0052 0.0397,0.01119 0.08238,0.0064 0.122945,0.0139 0.0062,0.0011 0.02052,0.01413 0.01486,0.01147 -0.013,-0.0061 -0.02475,-0.01462 -0.03712,-0.02193 0.02058,0.01323 0.04117,0.02647 0.06175,0.0397 -0.004,-0.0037 -0.01724,-0.01193 -0.01189,-0.01109 0.0043,6.61e-4 0.03458,0.02769 0.03745,0.03004 0.0037,0.003 -0.0071,-0.0063 -0.0106,-0.0095 0.01343,0.01129 0.02687,0.02258 0.04031,0.03388 0.0344,0.0024 0.0097,0.08205 0.0391,0.07944 0.01764,-0.0016 -0.01258,-0.03546 -0.0079,-0.05254 0.0023,-0.0085 0.01304,0.01256 0.01665,0.02063 0.02463,0.05504 0.02046,0.05394 0.02129,0.104587 -0.0011,-0.01438 5.7e-5,-0.02911 -0.0033,-0.04315 -0.0027,-0.01138 -0.0096,-0.02134 -0.01452,-0.03194 -7.94e-4,-0.0017 -0.004,-0.0064 -0.0027,-0.0051 0.01024,0.01089 0.0202,0.02206 0.02962,0.03366 0.0048,0.0059 0.01877,0.02353 0.0129,0.01873 -0.01325,-0.01086 -0.02363,-0.0248 -0.03545,-0.03721 9e-4,-5.56e-4 0.0018,-0.0011 0.0027,-0.0017 0,0 -0.135272,0.262468 -0.135272,0.262468 v 0 c -0.0065,-0.0044 -0.01307,-0.0088 -0.0196,-0.01317 -0.0179,-0.01614 -0.03611,-0.03194 -0.0537,-0.04842 -0.0012,-0.0011 -0.004,-0.0052 -0.0026,-0.0043 0.0043,0.0027 0.01517,0.01362 0.01156,0.01002 -0.03204,-0.03189 -0.04902,-0.03907 -0.06758,-0.08788 -0.0083,-0.02188 -0.0082,-0.04609 -0.01229,-0.06914 6.88e-4,0.0061 1.93e-4,0.01253 0.0021,0.01842 0.0048,0.01505 0.01055,0.02987 0.01778,0.04391 0.0016,0.0031 0.0089,0.01013 0.0082,0.0067 -0.01487,-0.08239 -0.03246,-0.08479 -0.0054,-0.03908 0.0019,0.0032 0.005,0.0055 0.0076,0.0083 0.106819,0.0756 -0.163614,-0.110543 6.62e-4,-0.0092 -0.01823,-0.009 -0.03626,-0.01849 -0.05468,-0.02713 -0.0024,-0.0011 0.0039,0.0043 0.0066,0.0046 0.03917,0.0048 0.08261,-0.0071 0.117917,0.01053 0.02189,0.01093 -0.04861,0.01792 -0.0724,0.01219 -0.107307,-0.02586 -0.09829,-0.04631 -0.132313,-0.125957 -0.0077,-0.08148 0.005,-0.161484 0.01628,-0.242121 0.01041,-0.05007 2.65e-4,0.0025 0.01042,-0.07085 0.01952,-0.140987 -0.01052,0.107109 0.01256,-0.09966 0.0025,-0.02281 0.0089,-0.04541 0.0083,-0.06835 -7.41e-4,-0.02803 -0.0083,-0.05547 -0.01237,-0.0832 0,0 0.293488,0.03261 0.293488,0.03261 z"
       inkscape:connector-curvature="0" />
    <path
       style="opacity:0.753;fill:url(#linearGradient4703);fill-opacity:1;stroke:none;stroke-width:0.26458332px;stroke-linecap:butt;stroke-linejoin:miter;stroke-opacity:1"
       d="m 36.899926,9.2421883 1.322917,-0.8740698 1.275667,-1.3937871 -0.165364,-1.1575521 0.307107,-0.9921875 0.566965,0.6378348 0.118115,1.7481399 1.441035,0.8504465 1.700892,0.8268229 -1.322916,0.236235 -1.653646,-0.8031995 -1.653646,0.3779763 -0.968563,0.07087 -0.779576,0.5197173 z"
       id="path4681"
       inkscape:connector-curvature="0" />
    <path
       style="opacity:0.753;fill:#ff4300;fill-opacity:1;stroke:none;stroke-width:0.26458332px;stroke-linecap:butt;stroke-linejoin:miter;stroke-opacity:1"
       d="m 40.183593,7.0924488 0.09449,-2.0079983 1.27567,-0.3071058 0.519718,0.9449405 -0.992188,1.1103049 z"
       id="path4683"
       inkscape:connector-curvature="0" />
    <path
       style="opacity:0.753;fill:url(#linearGradient4695);fill-opacity:1;stroke:none;stroke-width:0.26458332px;stroke-linecap:butt;stroke-linejoin:miter;stroke-opacity:1"
       d="M 40.112722,7.0924488 41.577381,5.8404026 43.042038,6.0057672 42.853051,7.0688255 41.624628,7.6121661 40.183593,7.2578134 Z"
       id="path4685"
       inkscape:connector-curvature="0" />
    <path
       style="opacity:0.753;fill:#ff5600;fill-opacity:1;stroke:none;stroke-width:0.26458332px;stroke-linecap:butt;stroke-linejoin:miter;stroke-opacity:1"
       d="m 40.490698,7.3050605 2.102493,-0.3307291 0.968565,0.921317 -0.944941,0.7795757 -1.535528,-0.5669642 z"
       id="path4687"
       inkscape:connector-curvature="0" />
    <path
       inkscape:connector-curvature="0"
       id="path4709"
       d="M 36.648406,9.4643062 37.250653,8.3610036 37.685004,6.8724269 37.273125,6.0338393 37.203215,5.1693128 37.730332,5.4768882 38.26933,6.786062 39.4043,6.973722 40.696912,7.058799 39.925187,7.6704372 38.668656,7.5882302 37.725971,8.4165127 37.133834,8.7856263 36.78017,9.4393638 Z"
       style="opacity:0.753;fill:url(#linearGradient4717);fill-opacity:1;stroke:none;stroke-width:0.20019585px;stroke-linecap:butt;stroke-linejoin:miter;stroke-opacity:1" />
    <path
       inkscape:connector-curvature="0"
       id="path4711"
       d="M 38.101291,6.8827758 37.627358,5.3042634 38.350448,4.653336 38.929362,5.2129795 38.598506,6.3909953 Z"
       style="opacity:0.753;fill:#ff4300;fill-opacity:1;stroke:none;stroke-width:0.20019585px;stroke-linecap:butt;stroke-linejoin:miter;stroke-opacity:1" />
    <path
       inkscape:connector-curvature="0"
       id="path4713"
       d="m 38.056586,6.9057871 0.591227,-1.4406823 0.967841,-0.3480939 0.163248,0.8808036 -0.630517,0.8176843 -1.003156,0.1947457 z"
       style="opacity:0.753;fill:url(#linearGradient4719);fill-opacity:1;stroke:none;stroke-width:0.20019585px;stroke-linecap:butt;stroke-linejoin:miter;stroke-opacity:1" />
    <path
       inkscape:connector-curvature="0"
       id="path4715"
       d="m 38.351504,6.9469496 1.238372,-0.9375999 0.855768,0.3956967 -0.388929,0.9077378 -1.119253,0.061538 z"
       style="opacity:0.753;fill:#ff5600;fill-opacity:1;stroke:none;stroke-width:0.20019585px;stroke-linecap:butt;stroke-linejoin:miter;stroke-opacity:1" />
    <path
       inkscape:connector-curvature="0"
       id="path4709-5"
       d="m 28.059133,29.319663 0.520605,1.144093 0.929503,1.241187 0.917893,0.174203 0.733288,0.463229 -0.562473,0.23681 -1.370524,-0.355132 -0.831589,0.794879 -0.844224,0.982534 -0.02568,-0.984379 0.820262,-0.955405 -0.09626,-1.251176 0.06041,-0.695141 -0.310385,-0.675361 z"
       style="display:inline;opacity:0.75899999;fill:url(#linearGradient4717-3);fill-opacity:1;stroke:none;stroke-width:0.20019585px;stroke-linecap:butt;stroke-linejoin:miter;stroke-opacity:1" />
    <path
       style="opacity:0.75899999;fill:#ff1800;fill-opacity:0.58431373;stroke:none;stroke-width:0.26458332px;stroke-linecap:butt;stroke-linejoin:miter;stroke-opacity:1"
       d="m 28.32459,32.369606 -0.377976,1.370163 0.661459,0.803201 0.897694,0.02363 0.04725,-1.322917 z"
       id="path4745"
       inkscape:connector-curvature="0" />
    <path
       style="opacity:0.75899999;fill:#ff4200;fill-opacity:0.58431373;stroke:none;stroke-width:0.26458332px;stroke-linecap:butt;stroke-linejoin:miter;stroke-opacity:1"
       d="m 28.797062,32.015255 -0.04725,1.275667 1.228424,0.992188 0.259858,-0.968563 -0.779574,-1.41741 -0.566965,-0.02363 z"
       id="path4747"
       inkscape:connector-curvature="0" />
    <path
       style="opacity:0.75899999;fill:#ff4200;fill-opacity:0.58431373;stroke:none;stroke-width:0.26458332px;stroke-linecap:butt;stroke-linejoin:miter;stroke-opacity:1"
       d="m 29.269531,32.464099 1.27567,1.346542 0.803198,0.188989 0.02363,-1.228423 -1.370163,-0.543341 -0.614212,-0.165364 -0.141742,0.519715 z"
       id="path4749"
       inkscape:connector-curvature="0" />
    <path
       style="opacity:0.858;fill:#fe2c00;fill-opacity:0.93888891;stroke:none;stroke-width:0.26458332px;stroke-linecap:butt;stroke-linejoin:miter;stroke-opacity:1"
       d="m 28.046595,29.401092 -0.409255,0.551244 -0.53454,0.275622 -0.309031,0.359145 -0.300678,0.242213 0.208804,0.618061 0.618062,0.175395 0.275621,-0.601358 0.175395,-0.793456 -0.03341,-0.242213 0.325737,-0.551244 z"
       id="path4751"
       inkscape:connector-curvature="0" />
  </g>
  <g
     inkscape:groupmode="layer"
     id="layer2"
     inkscape:label="Layer 2"
     style="display:inline"
     sodipodi:insensitive="true">
    <path
       style="fill:#90ee90;stroke:none;stroke-width:0.26458332px;stroke-linecap:butt;stroke-linejoin:miter;stroke-opacity:1"
       d="m 11.893494,10.333083 2.739512,-1.5367993 1.403166,5.0781213 -0.868626,0.935443 z"
       id="path4548"
       inkscape:connector-curvature="0" />
    <path
       style="fill:#90ee90;fill-opacity:1;stroke:none;stroke-width:0.26458332px;stroke-linecap:butt;stroke-linejoin:miter;stroke-opacity:1"
       d="m 9.5548856,17.616178 9.2207984,-0.367496 -0.167043,1.002261 -7.984677,1.035669 z"
       id="path4550"
       inkscape:connector-curvature="0" />
    <path
       style="fill:#90ee90;fill-opacity:1;stroke:none;stroke-width:0.26458332px;stroke-linecap:butt;stroke-linejoin:miter;stroke-opacity:1"
       d="m 10.690781,21.625221 c 0.167043,0.300678 1.169304,3.507912 1.169304,3.507912 l 1.002261,-0.634765 -1.637026,-3.173826 z"
       id="path4552"
       inkscape:connector-curvature="0" />
    <path
       style="fill:#90ee90;fill-opacity:1;stroke:none;stroke-width:0.26458332px;stroke-linecap:butt;stroke-linejoin:miter;stroke-opacity:1"
       d="m 17.071841,20.589551 -3.240643,5.278574 0.801808,0.434313 3.842,-5.512435 z"
       id="path4554"
       inkscape:connector-curvature="0" />
    <path
       style="fill:#90ee90;fill-opacity:1;stroke:none;stroke-width:0.26458332px;stroke-linecap:butt;stroke-linejoin:miter;stroke-opacity:1"
       d="m 4.3765385,27.638785 18.9761365,-0.23386 1.971112,-0.367495 1.06908,0.835216 -20.9472493,2.071339 z"
       id="path4556"
       inkscape:connector-curvature="0"
       sodipodi:nodetypes="cccccc" />
  </g>
  <g
     inkscape:groupmode="layer"
     id="layer3"
     inkscape:label="Layer 3"
     style="display:inline"
     sodipodi:insensitive="true">
    <path
       style="display:inline;fill:#90ee90;fill-opacity:1;stroke:none;stroke-width:0.26458332px;stroke-linecap:butt;stroke-linejoin:miter;stroke-opacity:1"
       d="m 36.888461,10.094605 6.000371,-0.5197195 2.456847,-0.85045 0.944941,1.4174095 -9.024183,0.56697 z"
       id="path4558"
       inkscape:connector-curvature="0" />
    <path
       transform="translate(0,-257)"
       style="display:inline;fill:#90ee90;fill-opacity:1;stroke:none;stroke-width:0.26458332px;stroke-linecap:butt;stroke-linejoin:miter;stroke-opacity:1"
       d="m 41.560186,267.37809 -3.81792,4.05316 0.338834,0.29159 4.785789,-3.66373 z"
       id="path4560"
       inkscape:connector-curvature="0"
       sodipodi:nodetypes="ccccc" />
    <path
       transform="translate(0,-257)"
       style="display:inline;fill:#90ee90;fill-opacity:1;stroke:none;stroke-width:0.26458332px;stroke-linecap:butt;stroke-linejoin:miter;stroke-opacity:1"
       d="m 37.277902,271.34487 0.09449,7.65401 0.944941,-0.37797 0.519716,-7.2288 z"
       id="path4562"
       inkscape:connector-curvature="0" />
    <path
       transform="translate(0,-257)"
       style="display:inline;fill:#90ee90;fill-opacity:1;stroke:none;stroke-width:0.26458332px;stroke-linecap:butt;stroke-linejoin:miter;stroke-opacity:1"
       d="m 38.411829,271.20313 7.370535,-1.27567 1.039437,0.66145 -2.078871,8.40997 -0.766923,-0.82375 0.955912,-6.78302 -6.709076,0.56697 z"
       id="path4564"
       inkscape:connector-curvature="0"
       sodipodi:nodetypes="cccccccc" />
    <path
       transform="translate(0,-257)"
       style="display:inline;fill:#90ee90;fill-opacity:1;stroke:none;stroke-width:0.26458332px;stroke-linecap:butt;stroke-linejoin:miter;stroke-opacity:1"
       d="m 37.93936,278.19569 5.433407,-0.23624 0.850447,-0.47247 1.08668,1.03944 -7.27604,0.23623 z"
       id="path4566"
       inkscape:connector-curvature="0"
       sodipodi:nodetypes="cccccc" />
    <path
       style="fill:#90ee90;fill-opacity:1;stroke:none;stroke-width:0.26458332px;stroke-linecap:butt;stroke-linejoin:miter;stroke-opacity:1"
       d="M 38.553572,16.470983 43.46726,15.337055 43.231027,17.32143 38.553572,17.132441 Z"
       id="path4574"
       inkscape:connector-curvature="0" />
    <path
       style="fill:#90ee90;fill-opacity:1;stroke:none;stroke-width:0.26458332px;stroke-linecap:butt;stroke-linejoin:miter;stroke-opacity:1"
       d="m 38.411829,18.73884 4.535715,-0.377976 -0.141742,1.228422 -4.913688,-0.377976 z"
       id="path4576"
       inkscape:connector-curvature="0" />
    <path
       style="fill:#90ee90;fill-opacity:1;stroke:none;stroke-width:0.26458332px;stroke-linecap:butt;stroke-linejoin:miter;stroke-opacity:1"
       d="m 37.948469,21.934252 c 0,0 -0.927854,2.70521 -2.077708,4.594918 -1.149855,1.889709 -4.507916,4.464732 -4.507916,4.464732 0,0 2.014608,-0.379899 3.195797,-0.85634 1.181188,-0.476441 1.942529,-2.117171 2.305768,-3.041986 0.655934,-1.670022 1.5566,-5.114773 1.5566,-5.114773 z"
       id="path4578"
       inkscape:connector-curvature="0"
       sodipodi:nodetypes="cscsscc" />
    <path
       style="fill:#90ee90;fill-opacity:1;stroke:none;stroke-width:0.26458332px;stroke-linecap:butt;stroke-linejoin:miter;stroke-opacity:1"
       d="m 37.797618,23.51079 6.992559,-0.992188 1.384986,1.164963 -3.800316,5.046342 -3.463277,2.935048 -2.484115,-0.547394 5.448229,-2.87732 2.595229,-4.613013 -5.96459,0.592267 z"
       id="path4580"
       inkscape:connector-curvature="0"
       sodipodi:nodetypes="cccccccccc" />
    <path
       style="fill:#90ee90;fill-opacity:1;stroke:none;stroke-width:0.26458332px;stroke-linecap:butt;stroke-linejoin:miter;stroke-opacity:1"
       d="m 38.364583,24.219495 4.100995,4.288016 6.353044,3.165549 3.159819,-1.071452 -3.802689,-0.610853 -5.213387,-2.204397 -3.212796,-4.023121 z"
       id="path4582"
       inkscape:connector-curvature="0"
       sodipodi:nodetypes="cccccccc" />
  </g>
</svg>
